<svg aria-hidden="true" style="position: absolute; width: 0; height: 0; overflow: hidden;" version="1.1" xmlns="http://www.w3.org/2000/svg" xmlns:xlink="http://www.w3.org/1999/xlink">
<defs>
<symbol id="icon-logo" viewBox="0 0 83 32">
<path d="M80.941 13.714c1.040 0 1.882 0.843 1.882 1.882v0.807c0 1.040-0.843 1.882-1.882 1.882h-2.151c-1.039 0-1.882 0.843-1.882 1.882v5.378c0 1.040-0.843 1.882-1.882 1.882h-2.151c-1.040 0-1.882 0.843-1.882 1.882v0.807c0 1.040-0.843 1.882-1.882 1.882h-5.109c-1.040 0-1.882-0.843-1.882-1.882v-9.95c0-1.040-0.843-1.882-1.882-1.882h-37.647c-1.040 0-1.882 0.843-1.882 1.882v9.95c0 1.040-0.843 1.882-1.882 1.882h-5.109c-1.040 0-1.882-0.843-1.882-1.882v-0.807c0-1.040-0.843-1.882-1.882-1.882h-2.151c-1.040 0-1.882-0.843-1.882-1.882v-5.378c0-1.040-0.843-1.882-1.882-1.882h-2.151c-1.040 0-1.882-0.843-1.882-1.882v-0.807c0-1.040 0.843-1.882 1.882-1.882h2.151c1.040 0 1.882-0.843 1.882-1.882v-5.378c0-1.040 0.843-1.882 1.882-1.882h2.151c1.040 0 1.882-0.843 1.882-1.882v-0.807c0-1.040 0.843-1.882 1.882-1.882h5.109c1.040 0 1.882 0.843 1.882 1.882v9.95c0 1.040 0.843 1.882 1.882 1.882h37.647c1.040 0 1.882-0.843 1.882-1.882v-9.95c0-1.040 0.843-1.882 1.882-1.882h5.109c1.040 0 1.882 0.843 1.882 1.882v0.807c0 1.040 0.843 1.882 1.882 1.882h2.151c1.040 0 1.882 0.843 1.882 1.882v5.378c0 1.040 0.843 1.882 1.882 1.882h2.151z"></path>
</symbol>
<symbol id="icon-user" viewBox="0 0 32 32">
<path d="M16.157 5.333c1.415 0 2.771 0.562 3.771 1.562s1.562 2.357 1.562 3.771-0.562 2.771-1.562 3.771c-1 1-2.357 1.562-3.771 1.562s-2.771-0.562-3.771-1.562c-1-1-1.562-2.357-1.562-3.771s0.562-2.771 1.562-3.771c1-1 2.357-1.562 3.771-1.562zM16.157 26.667c0 0 10.667 0 10.667-2.667 0-3.2-5.2-6.667-10.667-6.667s-10.667 3.467-10.667 6.667c0 2.667 10.667 2.667 10.667 2.667z"></path>
</symbol>
<symbol id="icon-chevron-right" viewBox="0 0 32 32">
<path d="M10.914 29.914l-2.828-2.829 11.586-11.586-11.586-11.586 2.828-2.828 14.414 14.414-14.414 14.414z"></path>
</symbol>
<symbol id="icon-chevron-left" viewBox="0 0 32 32">
<path d="M21.086 1.086l2.828 2.828-11.586 11.586 11.586 11.586-2.828 2.829-14.414-14.414 14.414-14.414z"></path>
</symbol>
<!-- <symbol id="icon-arrow-left" viewBox="0 0 32 32">
<path d="M14.133 16.947c-0.125-0.124-0.224-0.271-0.292-0.434s-0.103-0.337-0.103-0.513 0.035-0.35 0.103-0.513c0.068-0.163 0.167-0.31 0.292-0.434l6.12-6.107c0.125-0.124 0.224-0.271 0.292-0.434s0.103-0.337 0.103-0.513-0.035-0.35-0.103-0.513c-0.068-0.162-0.167-0.31-0.292-0.434-0.25-0.248-0.588-0.388-0.94-0.388s-0.69 0.139-0.94 0.388l-6.12 6.12c-0.749 0.75-1.17 1.767-1.17 2.827s0.421 2.077 1.17 2.827l6.12 6.12c0.248 0.246 0.583 0.385 0.933 0.387 0.175 0.001 0.349-0.033 0.512-0.099s0.31-0.164 0.435-0.288c0.125-0.124 0.224-0.271 0.292-0.434s0.103-0.337 0.103-0.513-0.035-0.35-0.103-0.513c-0.068-0.163-0.167-0.31-0.292-0.434l-6.12-6.107z"></path>
</symbol>
<symbol id="icon-arrow-right" viewBox="0 0 32 32">
<path d="M17.867 16.947c0.125-0.124 0.224-0.271 0.292-0.434s0.103-0.337 0.103-0.513-0.035-0.35-0.103-0.513c-0.068-0.163-0.167-0.31-0.292-0.434l-6.12-6.107c-0.125-0.124-0.224-0.271-0.292-0.434s-0.103-0.337-0.103-0.513c0-0.176 0.035-0.35 0.103-0.513s0.167-0.31 0.292-0.434c0.25-0.248 0.588-0.388 0.94-0.388s0.69 0.139 0.94 0.388l6.12 6.12c0.749 0.75 1.17 1.767 1.17 2.827s-0.421 2.077-1.17 2.827l-6.12 6.12c-0.248 0.246-0.584 0.385-0.933 0.387-0.175 0.001-0.349-0.033-0.512-0.099s-0.31-0.164-0.435-0.288c-0.125-0.124-0.224-0.271-0.292-0.434s-0.103-0.337-0.103-0.513 0.035-0.35 0.103-0.513c0.068-0.163 0.167-0.31 0.292-0.434l6.12-6.107z"></path>
</symbol> -->
<symbol id="icon-circle-done" viewBox="0 0 32 32">
<path d="M16 29.333c-7.364 0-13.333-5.969-13.333-13.333s5.969-13.333 13.333-13.333 13.333 5.969 13.333 13.333c0 7.364-5.969 13.333-13.333 13.333zM14.459 21.98l9.427-9.428-1.885-1.885-7.541 7.543-3.772-3.772-1.885 1.885 5.657 5.657z"></path>
</symbol>
<!-- <symbol id="icon-done" viewBox="0 0 44 32">
<path stroke-linejoin="round" stroke-linecap="round" stroke-miterlimit="4" stroke-width="3.6923" d="M40.206 3.487l-24.82 24.82-11.282-11.282"></path>
</symbol> -->
<symbol id="icon-addAvatar" viewBox="0 0 33 32">
<path d="M22 0.367c-0.076 0.015-1.264 0.351-2.64 0.747-2.086 0.599-2.567 0.72-2.887 0.724-0.34 0.004-0.685-0.083-2.909-0.731-2.487-0.724-2.531-0.735-2.971-0.712-0.356 0.019-0.504 0.055-0.729 0.177-0.535 0.292-0.65 0.464-1.871 2.81-0.916 1.761-1.195 2.25-1.394 2.448-0.185 0.184-0.845 0.577-2.585 1.538-2.631 1.454-2.846 1.61-3.077 2.23-0.203 0.543-0.156 0.827 0.597 3.637 0.521 1.943 0.666 2.559 0.666 2.833 0 0.278-0.136 0.841-0.663 2.742-0.364 1.316-0.677 2.52-0.694 2.676-0.053 0.465 0.137 0.988 0.5 1.378 0.276 0.298 0.446 0.397 2.618 1.529 1.628 0.848 2.405 1.282 2.596 1.453 0.251 0.224 0.364 0.427 1.443 2.612 0.742 1.502 1.244 2.454 1.372 2.601 0.12 0.137 0.353 0.306 0.57 0.412 0.328 0.162 0.416 0.181 0.809 0.177 0.384-0.005 0.749-0.089 2.806-0.653 1.679-0.459 2.485-0.655 2.778-0.674 0.393-0.025 0.535 0.006 3.052 0.671 2.356 0.623 2.679 0.697 3.002 0.678 0.458-0.025 1.009-0.284 1.28-0.6 0.103-0.121 0.704-1.2 1.336-2.399 0.9-1.709 1.201-2.233 1.395-2.427 0.172-0.172 0.932-0.646 2.502-1.559 1.241-0.721 2.358-1.382 2.483-1.47 0.26-0.182 0.537-0.558 0.659-0.898 0.191-0.532 0.147-0.753-0.668-3.369-0.696-2.234-0.755-2.454-0.758-2.861-0.004-0.416 0.036-0.568 0.749-2.837 0.836-2.661 0.859-2.786 0.634-3.389-0.223-0.596-0.435-0.755-2.824-2.106-1.473-0.834-2.217-1.286-2.376-1.446-0.167-0.168-0.604-0.913-1.585-2.706-0.84-1.537-1.43-2.555-1.556-2.685-0.384-0.396-1.155-0.652-1.66-0.551zM17.031 9.933c0.153 0.088 0.266 0.209 0.344 0.369 0.111 0.229 0.115 0.316 0.115 2.475v2.238h2.238c2.159 0 2.246 0.004 2.475 0.115 0.687 0.333 0.687 1.417 0 1.75-0.229 0.111-0.316 0.115-2.475 0.115h-2.238v2.238c0 2.159-0.004 2.246-0.115 2.475-0.337 0.695-1.413 0.695-1.75 0-0.111-0.229-0.115-0.316-0.115-2.475v-2.238h-2.238c-2.159 0-2.246-0.004-2.475-0.115-0.695-0.337-0.695-1.413 0-1.75 0.229-0.111 0.316-0.115 2.475-0.115h2.238v-2.238c0-2.15 0.004-2.246 0.114-2.473 0.173-0.357 0.621-0.59 1.013-0.527 0.091 0.014 0.268 0.085 0.394 0.156z"></path>
</symbol>
<symbol id="icon-burger" viewBox="0 0 32 32">
<path d="M3.751 6.723c-0.631 0.125-1.041 0.631-1.041 1.281 0 0.387 0.143 0.712 0.421 0.963 0.408 0.367-0.604 0.34 12.869 0.34s12.461 0.027 12.869-0.34c0.279-0.251 0.421-0.576 0.421-0.963 0-0.533-0.276-0.971-0.757-1.197l-0.24-0.113-12.16-0.008c-6.688-0.004-12.26 0.012-12.383 0.037zM3.751 14.721c-0.631 0.127-1.041 0.632-1.041 1.283 0 0.387 0.143 0.712 0.421 0.963 0.404 0.363-0.204 0.34 8.869 0.34s8.465 0.023 8.869-0.34c0.7-0.631 0.508-1.785-0.363-2.177-0.203-0.091-0.639-0.096-8.373-0.104-4.488-0.004-8.26 0.012-8.383 0.036zM3.751 22.723c-0.631 0.125-1.041 0.631-1.041 1.281 0 0.387 0.143 0.712 0.421 0.963 0.408 0.367-0.604 0.34 12.869 0.34s12.461 0.027 12.869-0.34c0.279-0.251 0.421-0.576 0.421-0.963 0-0.533-0.276-0.971-0.757-1.197l-0.24-0.113-12.16-0.008c-6.688-0.004-12.26 0.012-12.383 0.037z"></path>
</symbol>
<symbol id="icon-arrow" viewBox="0 0 32 32">
<path d="M14.41 0.886c-0.648 0.322-0.884 1.208-0.48 1.802 0.062 0.090 2.55 2.608 5.53 5.592l5.42 5.426-11.466 0.002c-7.498 0-11.548 0.020-11.7 0.054-0.58 0.134-0.968 0.636-0.966 1.248 0 0.198 0.040 0.408 0.1 0.54 0.118 0.262 0.49 0.592 0.748 0.664 0.124 0.034 4.274 0.052 11.724 0.052 6.344 0 11.534 0.018 11.534 0.040s-2.47 2.512-5.49 5.534c-5.354 5.358-5.492 5.5-5.574 5.784-0.104 0.358-0.104 0.396 0 0.742 0.168 0.57 0.724 0.952 1.306 0.9 0.166-0.016 0.382-0.068 0.482-0.118 0.236-0.118 13.45-13.332 13.568-13.568 0.050-0.098 0.102-0.308 0.12-0.466 0.062-0.614 0.514-0.12-6.832-7.48-4.622-4.63-6.74-6.716-6.888-6.784-0.322-0.152-0.79-0.138-1.136 0.036z"></path>
</symbol>
<symbol id="icon-logout" viewBox="0 0 32 32">
<path d="M7.68 2.883c-1.49 0.141-2.43 0.552-3.338 1.459-0.714 0.714-1.122 1.462-1.33 2.434-0.179 0.846-0.194 1.632-0.171 9.704 0.022 8.128 0.024 8.189 0.227 8.981 0.426 1.67 1.802 3.046 3.47 3.47 0.685 0.174 1.109 0.203 3.381 0.227l2.32 0.024 0.293-0.154c0.419-0.221 0.614-0.546 0.614-1.029 0-0.48-0.195-0.81-0.608-1.024l-0.285-0.149h-1.741c-1.842 0-2.946-0.059-3.408-0.182-0.778-0.208-1.542-0.971-1.749-1.747-0.16-0.6-0.184-1.722-0.184-8.898 0-7.165 0.024-8.298 0.182-8.894 0.208-0.778 0.971-1.542 1.747-1.749 0.466-0.125 1.563-0.182 3.411-0.184h1.741l0.285-0.149c0.413-0.214 0.608-0.544 0.608-1.024s-0.195-0.81-0.608-1.024l-0.285-0.149-2.061 0.006c-1.133 0.005-2.264 0.027-2.514 0.050zM20.794 8.309c-0.525 0.274-0.76 0.885-0.554 1.438 0.080 0.214 0.453 0.613 2.499 2.666l2.405 2.414h-13.398l-0.285 0.149c-0.413 0.214-0.608 0.544-0.608 1.024s0.195 0.81 0.608 1.024l0.285 0.149h13.398l-2.405 2.414c-2.046 2.053-2.419 2.451-2.499 2.666-0.267 0.718 0.227 1.502 0.994 1.576 0.568 0.054 0.44 0.163 4.221-3.61 3.688-3.677 3.72-3.715 3.718-4.216-0.003-0.509-0.002-0.507-3.642-4.152-2.616-2.618-3.486-3.459-3.688-3.56-0.36-0.179-0.682-0.174-1.050 0.018z"></path>
</symbol>
<symbol id="icon-user" viewBox="0 0 32 32">
<path stroke-linejoin="round" stroke-linecap="round" stroke-miterlimit="4" stroke-width="2.6667" d="M16 20c-4.227 0-7.986 2.041-10.379 5.208-0.515 0.682-0.773 1.022-0.764 1.483 0.006 0.356 0.23 0.805 0.51 1.025 0.362 0.284 0.865 0.284 1.869 0.284h17.527c1.005 0 1.507 0 1.869-0.284 0.28-0.22 0.503-0.669 0.51-1.025 0.008-0.461-0.249-0.801-0.764-1.483-2.393-3.167-6.152-5.208-10.379-5.208z"></path>
<path stroke-linejoin="round" stroke-linecap="round" stroke-miterlimit="4" stroke-width="2.6667" d="M16 16c3.314 0 6-2.686 6-6s-2.686-6-6-6c-3.314 0-6 2.686-6 6s2.686 6 6 6z"></path>
</symbol>
<symbol id="icon-bubble" viewBox="0 0 32 32">
<path d="M20.793 16.346c3.778 0 6.84-3.062 6.84-6.84s-3.062-6.84-6.84-6.84c-3.778 0-6.84 3.062-6.84 6.84s3.062 6.84 6.84 6.84z"></path>
<path d="M8.476 25.919c2.268 0 4.107-1.839 4.107-4.107s-1.839-4.107-4.107-4.107c-2.268 0-4.107 1.839-4.107 4.107s1.839 4.107 4.107 4.107z"></path>
<path d="M22.151 29.332c1.885 0 3.413-1.528 3.413-3.413s-1.528-3.413-3.413-3.413c-1.885 0-3.413 1.528-3.413 3.413s1.528 3.413 3.413 3.413z"></path>
</symbol>
<symbol id="icon-fork" viewBox="0 0 32 32">
<path d="M24 4c0.327 0 0.642 0.12 0.886 0.337s0.4 0.516 0.438 0.84l0.009 0.156v21.333c-0 0.34-0.131 0.667-0.364 0.914s-0.552 0.396-0.891 0.416c-0.339 0.020-0.673-0.090-0.934-0.308s-0.428-0.528-0.468-0.865l-0.009-0.156v-6.667h-1.333c-0.327 0-0.642-0.12-0.886-0.337s-0.4-0.516-0.438-0.84l-0.009-0.156v-8c0-2.947 2-6.667 4-6.667zM16 4c0.327 0 0.642 0.12 0.886 0.337s0.4 0.516 0.438 0.84l0.009 0.156v6.667c-0 1.183-0.393 2.331-1.117 3.266s-1.738 1.603-2.883 1.899v9.501c-0 0.34-0.13 0.667-0.364 0.914s-0.552 0.396-0.891 0.416c-0.339 0.020-0.673-0.090-0.934-0.308s-0.428-0.528-0.468-0.865l-0.009-0.156v-9.501c-1.099-0.284-2.079-0.912-2.798-1.791s-1.137-1.965-1.196-3.099l-0.007-0.275v-6.667c0-0.34 0.13-0.667 0.364-0.914s0.552-0.396 0.891-0.416c0.339-0.020 0.673 0.090 0.934 0.309s0.428 0.528 0.468 0.865l0.009 0.156v6.667c0 0.468 0.123 0.928 0.357 1.333s0.571 0.742 0.976 0.976v-8.976c0-0.34 0.13-0.667 0.364-0.914s0.552-0.396 0.891-0.416c0.339-0.020 0.673 0.090 0.934 0.309s0.428 0.528 0.468 0.865l0.009 0.156 0.001 8.976c0.372-0.215 0.687-0.517 0.917-0.88s0.37-0.776 0.406-1.204l0.009-0.225v-6.667c0-0.354 0.14-0.693 0.391-0.943s0.589-0.391 0.943-0.391z"></path>
</symbol>
<symbol id="icon-fire" viewBox="0 0 32 32">
<path d="M16.001 22.291c-0.946 0.72-2.898 2.5-2.898 4.925 0 1.601 1.3 2.904 2.897 2.904s2.897-1.303 2.897-2.904c0-2.297-1.954-4.161-2.895-4.925z"></path>
<path d="M22.789 5.57c-0.351-0.397-0.958-0.421-1.34-0.064l-4.412 4.117v-8.623c0-0.722-0.87-1.261-1.522-0.867-0.123 0.075-3.055 1.865-6.017 5.116-3.602 3.953-6.055 8.766-6.055 14.164 0 6.941 5.633 12.587 12.557 12.587-2.631 0-4.772-2.146-4.772-4.784 0-4.262 4.138-6.786 4.314-6.891 0.309-0.184 0.695-0.176 0.996 0.022 0.173 0.114 4.234 2.838 4.234 6.869 0 2.638-2.141 4.784-4.772 4.784 6.924 0 12.557-5.647 12.557-12.587 0-5.241-2.313-9.938-5.767-13.843z"></path>
</symbol>
<symbol id="icon-dumbbell" viewBox="0 0 32 32">
<path d="M5.2 8h-2.4c-0.665 0-1.2 0.535-1.2 1.2v5.2h-1.2c-0.22 0-0.4 0.18-0.4 0.4v2.4c0 0.22 0.18 0.4 0.4 0.4h1.2v5.2c0 0.665 0.535 1.2 1.2 1.2h2.4c0.665 0 1.2-0.535 1.2-1.2v-13.6c0-0.665-0.535-1.2-1.2-1.2zM31.6 14.4h-1.2v-5.2c0-0.665-0.535-1.2-1.2-1.2h-2.4c-0.665 0-1.2 0.535-1.2 1.2v13.6c0 0.665 0.535 1.2 1.2 1.2h2.4c0.665 0 1.2-0.535 1.2-1.2v-5.2h1.2c0.22 0 0.4-0.18 0.4-0.4v-2.4c0-0.22-0.18-0.4-0.4-0.4zM22.8 4.8h-2.4c-0.665 0-1.2 0.535-1.2 1.2v8.4h-6.4v-8.4c0-0.665-0.535-1.2-1.2-1.2h-2.4c-0.665 0-1.2 0.535-1.2 1.2v20c0 0.665 0.535 1.2 1.2 1.2h2.4c0.665 0 1.2-0.535 1.2-1.2v-8.4h6.4v8.4c0 0.665 0.535 1.2 1.2 1.2h2.4c0.665 0 1.2-0.535 1.2-1.2v-20c0-0.665-0.535-1.2-1.2-1.2z"></path>
</symbol>
<symbol id="icon-apple" viewBox="0 0 32 32">
<path d="M19.454 4.758c0.102-0.031 0.198-0.082 0.28-0.151s0.15-0.153 0.199-0.248 0.079-0.199 0.087-0.306c0.008-0.107-0.005-0.214-0.039-0.315s-0.088-0.195-0.159-0.275c-0.071-0.080-0.157-0.146-0.253-0.192s-0.201-0.073-0.308-0.078c-0.107-0.005-0.214 0.011-0.314 0.048-1.501 0.499-2.435 1.731-2.986 3.051-0.074 0.178-0.142 0.359-0.203 0.542-0.3-0.568-0.683-1.087-1.138-1.541-0.615-0.616-1.35-1.1-2.159-1.422s-1.675-0.475-2.546-0.45c-0.928 0.026-1.669 0.768-1.694 1.694-0.025 0.87 0.128 1.737 0.45 2.546s0.806 1.543 1.422 2.159l0.050 0.048c-1.344 0.291-2.559 1.007-3.464 2.042s-1.454 2.334-1.563 3.705l-0.010 0.118c-0.211 2.636 0.35 5.275 1.616 7.597l0.576 1.053c0.016 0.027 0.032 0.054 0.051 0.080l1.6 2.243c0.363 0.508 0.832 0.931 1.374 1.239s1.146 0.495 1.768 0.546c0.622 0.051 1.248-0.033 1.833-0.248s1.118-0.555 1.559-0.996c0.068-0.068 0.148-0.122 0.237-0.158s0.183-0.056 0.279-0.056c0.096 0 0.191 0.019 0.279 0.056s0.169 0.090 0.237 0.158c0.441 0.441 0.973 0.781 1.559 0.996s1.212 0.3 1.833 0.248c0.622-0.052 1.225-0.238 1.768-0.546s1.012-0.731 1.374-1.239l1.6-2.242c0.019-0.026 0.036-0.053 0.051-0.082l0.574-1.053c1.266-2.321 1.827-4.961 1.616-7.597l-0.008-0.118c-0.071-0.884-0.324-1.743-0.745-2.523s-0.998-1.465-1.697-2.010-1.503-0.94-2.362-1.158c-0.859-0.218-1.754-0.256-2.628-0.11l-2.651 0.442c0.016-1.090 0.208-2.315 0.638-3.349 0.448-1.080 1.114-1.848 2.013-2.149h0.002zM11.054 14.358c-0.246 0.078-0.473 0.203-0.67 0.369s-0.359 0.37-0.477 0.599c-0.296 0.557-0.499 1.475-0.312 2.974 0.021 0.208-0.040 0.416-0.17 0.579s-0.319 0.269-0.526 0.295c-0.207 0.026-0.416-0.030-0.583-0.157s-0.277-0.313-0.308-0.519c-0.213-1.702-0.016-2.984 0.488-3.926 0.512-0.96 1.291-1.478 2.053-1.733 0.1-0.033 0.205-0.046 0.31-0.039s0.207 0.036 0.301 0.083c0.094 0.047 0.178 0.112 0.247 0.191s0.121 0.172 0.155 0.271c0.033 0.1 0.046 0.205 0.039 0.31s-0.036 0.207-0.083 0.301c-0.047 0.094-0.112 0.178-0.191 0.247s-0.172 0.121-0.271 0.155z"></path>
</symbol>
<symbol id="icon-run" viewBox="0 0 32 32">
<path d="M29.647 9.451c-0.419-0.501-1.166-0.567-1.667-0.149l-3.282 2.757-1.509-3.739c-0.054-0.14-0.135-0.258-0.229-0.362-0.308-0.686-0.844-1.275-1.582-1.617-0.32-0.146-0.652-0.224-0.982-0.262-0.073-0.038-0.139-0.088-0.222-0.114l-5.775-1.61c-0.324-0.088-0.65-0.031-0.917 0.125-0.317 0.107-0.589 0.338-0.719 0.672l-2.175 5.592c-0.236 0.608 0.066 1.294 0.676 1.534 0.607 0.236 1.294-0.068 1.532-0.678l1.837-4.722 2.63 0.731c-0.064 0.104-0.133 0.201-0.185 0.312l-3.372 7.309c-0.049 0.107-0.075 0.217-0.109 0.328l-4.098 6.871-6.859 2.294c-0.776 0.58-0.941 1.674-0.367 2.45 0.577 0.778 1.674 0.943 2.448 0.369l7.018-2.417c0.215-0.156 0.371-0.36 0.489-0.58 0.088-0.094 0.189-0.168 0.256-0.284l2.443-4.096 4.337 3.696-4.641 5.23c-0.639 0.721-0.575 1.832 0.149 2.469 0.723 0.643 1.83 0.575 2.473-0.149l5.791-6.524c0.18-0.201 0.288-0.433 0.36-0.676 0.043-0.132 0.043-0.269 0.054-0.406 0-0.069 0.026-0.132 0.021-0.196-0.016-0.478-0.21-0.943-0.601-1.274l-3.991-3.403c0.288-0.274 0.532-0.6 0.709-0.983l2.585-5.599 0.828 2.206c0.035 0.196 0.1 0.388 0.239 0.549 0.125 0.149 0.284 0.248 0.454 0.317 0.017 0.009 0.038 0.010 0.059 0.016 0.107 0.038 0.216 0.075 0.329 0.080 0.133 0.012 0.269-0.005 0.405-0.043 0.004-0.002 0.005-0.002 0.005-0.002 0.036-0.009 0.073-0.002 0.109-0.017 0.192-0.073 0.34-0.196 0.466-0.34l4.71-3.998c0.501-0.421 0.289-1.166-0.132-1.667z"></path>
<path d="M23.689 6.602c1.823 0 3.301-1.478 3.301-3.301s-1.478-3.301-3.301-3.301c-1.823 0-3.301 1.478-3.301 3.301s1.478 3.301 3.301 3.301z"></path>
</symbol>
<symbol id="icon-play" viewBox="0 0 27 32">
<path d="M26.667 16l-26.667 15.396v-30.792l26.667 15.396z"></path>
</symbol>
<symbol id="icon-x" viewBox="0 0 32 32">
<path d="M7.508 6.318c-0.578 0.16-1.1 0.736-1.223 1.349-0.076 0.389-0.004 0.873 0.181 1.186 0.060 0.103 1.673 1.753 3.582 3.666l3.47 3.481-3.47 3.479c-1.909 1.915-3.522 3.564-3.582 3.668s-0.14 0.336-0.18 0.521c-0.245 1.195 0.852 2.292 2.048 2.046 0.183-0.039 0.416-0.119 0.519-0.18s1.753-1.673 3.666-3.582l3.481-3.47 3.479 3.47c1.915 1.909 3.564 3.522 3.668 3.582s0.336 0.14 0.521 0.18c1.195 0.245 2.292-0.852 2.046-2.048-0.039-0.183-0.119-0.416-0.18-0.519s-1.673-1.753-3.582-3.668l-3.47-3.479 3.47-3.481c1.909-1.913 3.522-3.563 3.582-3.666s0.14-0.336 0.18-0.519c0.245-1.196-0.852-2.293-2.046-2.048-0.185 0.039-0.418 0.119-0.521 0.18s-1.753 1.673-3.668 3.582l-3.479 3.472-3.454-3.445c-1.899-1.895-3.532-3.5-3.628-3.566-0.363-0.247-0.926-0.322-1.41-0.19z"></path>
</symbol>
<symbol id="icon-search" viewBox="0 0 32 32">
<path d="M14.578 26.667c-6.578 0-12.089-5.333-12.089-12.089 0-6.578 5.333-12.089 12.089-12.089 6.578 0 12.089 5.333 12.089 12.089s-5.333 12.089-12.089 12.089zM14.578 5.333c-4.978 0-9.244 4.267-9.244 9.244 0 5.156 4.267 9.244 9.244 9.244 5.156 0 9.244-4.267 9.244-9.244 0.178-4.978-4.089-9.244-9.244-9.244z"></path>
<path d="M28.089 29.333c-0.356 0-0.711-0.178-0.889-0.356l-5.867-5.867c-0.533-0.533-0.533-1.422 0-1.956s1.422-0.533 1.956 0l5.867 5.867c0.533 0.533 0.533 1.422 0 1.956-0.533 0.178-0.889 0.356-1.067 0.356z"></path>
</symbol>
<symbol id="icon-trash" viewBox="0 0 32 32">
<path d="M18.72 21.92c-0.64 0-1.28-0.48-1.28-1.28v-6.56c0-0.64 0.48-1.28 1.28-1.28s1.28 0.48 1.28 1.28v6.72c-0.16 0.48-0.64 1.12-1.28 1.12zM13.28 21.92c-0.64 0-1.28-0.48-1.28-1.28v-6.56c0.16-0.8 0.64-1.28 1.28-1.28s1.28 0.48 1.28 1.28v6.72c0 0.48-0.64 1.12-1.28 1.12zM20 5.12h-8c-0.64 0-1.28-0.48-1.28-1.28s0.48-1.28 1.28-1.28h8c0.64 0 1.28 0.48 1.28 1.28s-0.64 1.28-1.28 1.28z"></path>
<path d="M18.080 29.12h-4.16c-2.24 0-3.36 0-4.48-0.48-0.96-0.48-1.76-1.12-2.24-2.080-0.64-0.96-0.64-2.24-0.8-4.48l-0.8-12.8h-1.6c-0.64 0-1.12-0.64-1.12-1.28s0.48-1.28 1.28-1.28h2.72c0 0 0 0 0 0h18.72c0 0 0 0 0 0h2.72c0.64 0 1.28 0.48 1.28 1.28s-0.48 1.28-1.28 1.28h-1.6l-1.12 12.8c-0.16 2.24-0.16 3.36-0.8 4.48-0.48 0.96-1.28 1.6-2.24 2.080-1.12 0.48-2.24 0.48-4.48 0.48zM8 9.28l0.8 12.8c0.16 1.92 0.16 2.88 0.48 3.52 0.32 0.48 0.64 0.96 1.28 1.12 0.64 0.32 1.6 0.32 3.52 0.32h4c1.92 0 2.88 0 3.52-0.32 0.48-0.32 0.96-0.64 1.28-1.12s0.32-1.6 0.48-3.52l0.8-12.8h-16.16z"></path>
</symbol>
<symbol id="icon-warning" viewBox="0 0 32 32">
<path d="M16 26.667c-0.8 0-1.333-0.533-1.333-1.333s0.533-1.333 1.333-1.333 1.333 0.533 1.333 1.333v0c0 0.8-0.533 1.333-1.333 1.333zM16 21.333c-0.8 0-1.333-0.533-1.333-1.333v-13.333c0-0.8 0.533-1.333 1.333-1.333s1.333 0.533 1.333 1.333v13.333c0 0.8-0.533 1.333-1.333 1.333z"></path>
</symbol>
<symbol id="icon-settings" viewBox="0 0 32 32">
<path d="M16 21.143c-2.857 0-5.143-2.286-5.143-5.143s2.286-5.143 5.143-5.143 5.143 2.286 5.143 5.143-2.286 5.143-5.143 5.143zM16 13.143c-1.6 0-2.857 1.257-2.857 2.857s1.257 2.857 2.857 2.857c1.6 0 2.857-1.257 2.857-2.857s-1.257-2.857-2.857-2.857z"></path>
<path d="M16.114 30.514c-0.914 0-1.829-0.343-2.514-1.029s-1.029-1.6-1.029-2.514c0-0.229-0.114-0.457-0.114-0.571-0.114-0.114-0.229-0.229-0.457-0.343s-0.343-0.114-0.571-0.114c-0.114 0-0.343 0.114-0.457 0.229-0.343 0.343-0.8 0.686-1.257 0.8-0.914 0.343-1.829 0.343-2.743 0-0.457-0.229-0.8-0.457-1.143-0.8s-0.571-0.686-0.8-1.143c-0.229-0.457-0.229-0.914-0.229-1.371s0.114-0.914 0.229-1.371c0.229-0.457 0.457-0.8 0.8-1.143 0.229-0.229 0.229-0.343 0.343-0.457 0-0.114 0-0.343-0.114-0.457s-0.229-0.343-0.343-0.343-0.343-0.114-0.457-0.114h-0.114c-0.914 0-1.829-0.343-2.514-1.029s-1.029-1.6-1.029-2.514c0-0.914 0.343-1.829 1.029-2.514 0.571-0.8 1.486-1.143 2.514-1.143 0.229 0 0.457-0.114 0.571-0.114 0.114-0.114 0.229-0.229 0.343-0.457s0.114-0.343 0.114-0.571c0-0.114-0.114-0.343-0.229-0.457-0.571-0.457-0.8-0.8-0.914-1.257-0.229-0.457-0.343-0.914-0.343-1.371s0.114-0.914 0.229-1.371c0.229-0.457 0.457-0.8 0.8-1.143s0.686-0.571 1.143-0.8c0.914-0.343 1.829-0.343 2.743 0 0.457 0.229 0.8 0.457 1.143 0.8 0.229 0.229 0.343 0.229 0.457 0.343 0.114 0 0.343 0 0.457-0.114 0.114 0 0.114-0.114 0.229-0.114 0.114-0.114 0.229-0.114 0.229-0.229 0.114-0.114 0.114-0.343 0.114-0.457v-0.114c0-0.914 0.343-1.829 1.029-2.514 1.371-1.371 3.657-1.371 5.029 0 0.686 0.686 1.029 1.6 1.029 2.514 0 0.229 0 0.457 0.114 0.571s0.229 0.229 0.343 0.343c0.114 0.114 0.343 0.114 0.457 0.114s0.343-0.114 0.457-0.229c0.343-0.343 0.8-0.686 1.257-0.8 0.914-0.343 1.829-0.343 2.743 0 0.457 0.229 0.8 0.457 1.143 0.8s0.571 0.686 0.8 1.143c0.229 0.457 0.229 0.914 0.229 1.371s-0.114 0.914-0.229 1.371c-0.229 0.457-0.457 0.8-0.8 1.143-0.229 0.229-0.229 0.343-0.343 0.457 0 0.114 0 0.343 0.114 0.457 0 0.114 0.114 0.114 0.114 0.229 0.114 0.114 0.114 0.229 0.229 0.229 0.114 0.114 0.343 0.114 0.457 0.114h0.229c0.914 0 1.829 0.343 2.514 1.029s1.029 1.6 1.029 2.514c0 0.914-0.343 1.829-1.029 2.514s-1.6 1.029-2.514 1.029c-0.229 0-0.457 0-0.571 0.114s-0.229 0.229-0.343 0.343c0 0 0 0 0 0-0.114 0.114-0.114 0.343-0.114 0.457s0.114 0.343 0.229 0.457c0.343 0.343 0.686 0.8 0.8 1.257 0.229 0.457 0.229 0.914 0.229 1.371s-0.114 0.914-0.229 1.371c-0.229 0.457-0.457 0.8-0.8 1.143s-0.686 0.571-1.143 0.8c-0.914 0.343-1.829 0.343-2.743 0-0.457-0.229-0.8-0.457-1.143-0.8 0 0-0.114-0.114-0.114-0.114-0.114-0.114-0.229-0.229-0.457-0.229-0.114 0-0.343 0-0.457 0.114s-0.343 0.229-0.343 0.343-0.114 0.343-0.114 0.457v0.229c0 0.914-0.343 1.829-1.029 2.514-0.343 0.686-1.257 1.143-2.171 1.143zM11.543 23.657c0.457 0 0.914 0.114 1.257 0.229 0.571 0.229 1.029 0.571 1.371 1.143s0.571 1.143 0.571 1.714c0 0 0 0.114 0 0.114 0 0.343 0.114 0.686 0.343 0.914 0.457 0.457 1.371 0.457 1.829 0 0.229-0.229 0.343-0.571 0.343-0.914v-0.229c0-0.571 0.229-1.257 0.571-1.714s0.8-0.914 1.371-1.143c0.571-0.229 1.143-0.343 1.829-0.229 0.571 0.114 1.143 0.457 1.6 0.8 0 0 0.114 0.114 0.114 0.114 0.114 0.114 0.229 0.229 0.457 0.229 0.343 0.114 0.686 0.114 1.029 0 0.114-0.114 0.343-0.114 0.457-0.229s0.229-0.229 0.229-0.457c0.114-0.114 0.114-0.343 0.114-0.457s0-0.343-0.114-0.457c-0.114-0.114-0.114-0.343-0.229-0.457 0 0-0.114-0.114-0.114-0.114-0.457-0.457-0.686-1.029-0.8-1.6s0-1.257 0.229-1.829c0.229-0.571 0.686-1.029 1.143-1.371s1.143-0.571 1.714-0.571c0 0 0.114 0 0.114 0 0.343 0 0.686-0.114 0.914-0.343s0.343-0.571 0.343-0.914c0-0.343-0.114-0.686-0.343-0.914s-0.571-0.343-0.914-0.343h-0.229c-0.571 0-1.257-0.229-1.714-0.571s-0.914-0.8-1.143-1.371c0-0.114-0.114-0.229-0.114-0.343-0.229-0.571-0.229-1.029-0.114-1.6s0.457-1.143 0.8-1.6c0 0 0.114-0.114 0.114-0.114 0.114-0.114 0.229-0.229 0.229-0.457 0.114-0.114 0.114-0.343 0.114-0.457s0-0.343-0.114-0.457c-0.114-0.114-0.114-0.343-0.229-0.457s-0.229-0.229-0.457-0.229-0.686-0.114-1.029 0c-0.114 0.114-0.343 0.114-0.457 0.229 0 0-0.114 0.114-0.114 0.114-0.457 0.457-1.029 0.686-1.6 0.8s-1.257 0-1.829-0.229c-0.571-0.229-1.029-0.686-1.371-1.143s-0.571-1.143-0.571-1.714c0 0 0-0.114 0-0.114 0-0.343-0.114-0.686-0.343-0.914-0.457-0.457-1.371-0.457-1.829 0-0.229 0.229-0.343 0.571-0.343 0.914v0.229c0 0.571-0.229 1.257-0.571 1.714s-0.8 0.914-1.371 1.143c-0.114 0-0.229 0.114-0.343 0.114-0.343 0.343-0.914 0.343-1.486 0.229s-1.143-0.343-1.6-0.8c0 0-0.114-0.114-0.114-0.114-0.114-0.114-0.229-0.229-0.343-0.229-0.343-0.114-0.686-0.114-1.029 0-0.114 0-0.229 0.114-0.457 0.229-0.114 0.114-0.114 0.343-0.229 0.457s-0.114 0.343-0.114 0.457c0 0.114 0 0.343 0.114 0.457 0.114 0.229 0.114 0.343 0.229 0.457 0 0 0.114 0.114 0.114 0.114 0.457 0.457 0.686 1.029 0.8 1.6s0 1.257-0.229 1.829c-0.229 0.571-0.571 1.029-1.143 1.371s-1.143 0.571-1.714 0.571c0 0-0.114 0-0.114 0-0.343 0-0.686 0.114-0.914 0.343s-0.343 0.571-0.343 0.914c0 0.343 0.114 0.686 0.343 0.914s0.571 0.343 0.914 0.343h0.229c0.571 0 1.257 0.229 1.714 0.571s0.914 0.8 1.143 1.371c0.229 0.571 0.343 1.143 0.229 1.829-0.114 0.571-0.457 1.143-0.8 1.6 0 0-0.114 0.114-0.114 0.114-0.114 0.114-0.229 0.229-0.229 0.457s-0.114 0.343-0.114 0.457c0 0.114 0 0.343 0.114 0.457s0.114 0.343 0.229 0.457c0.114 0.114 0.229 0.229 0.457 0.229 0.343 0.114 0.686 0.114 1.029 0 0.114-0.114 0.343-0.114 0.457-0.229 0 0 0.114-0.114 0.114-0.114 0.457-0.457 1.029-0.686 1.6-0.8 0.114 0 0.229 0 0.457 0zM24.914 19.657v0 0z"></path>
</symbol>
<symbol id="icon-eye" viewBox="0 0 32 32">
<path d="M16 28.16c-10.080 0-15.68-11.040-16-11.52-0.16-0.48-0.16-0.96 0-1.28 0.16-0.48 5.92-11.52 16-11.52s15.68 11.040 16 11.52c0.16 0.48 0.16 0.96 0 1.28-0.32 0.48-5.92 11.52-16 11.52zM3.040 16c1.28 2.24 5.92 9.28 12.96 9.28s11.68-7.040 12.96-9.28c-1.28-2.24-5.92-9.28-12.96-9.28s-11.68 7.040-12.96 9.28z"></path>
<path d="M16 21.44c-3.040 0-5.44-2.4-5.44-5.44s2.4-5.44 5.44-5.44 5.44 2.4 5.44 5.44-2.4 5.44-5.44 5.44zM16 13.44c-1.44 0-2.56 1.12-2.56 2.56s1.12 2.56 2.56 2.56 2.56-1.12 2.56-2.56-1.12-2.56-2.56-2.56z"></path>
</symbol>
<symbol id="icon-eye-off" viewBox="0 0 32 32">
<path d="M16 28.16c-10.080 0-15.68-11.040-16-11.52-0.16-0.48-0.16-0.96 0-1.28 1.76-3.36 4.16-6.080 7.2-8.32 0.64-0.48 1.6-0.32 2.080 0.32s0.32 1.6-0.32 2.080c-2.4 1.6-4.48 4-5.92 6.56 1.28 2.24 5.92 9.28 12.96 9.28 2.56 0 4.96-0.96 7.040-2.4 0.64-0.48 1.6-0.32 2.080 0.32s0.32 1.6-0.32 2.080c-2.56 1.76-5.6 2.72-8.8 2.88zM27.84 21.76c-0.32 0-0.64-0.16-0.96-0.32-0.64-0.48-0.64-1.44-0.16-2.080 0.8-0.96 1.6-2.080 2.4-3.36-1.28-2.24-5.92-9.28-12.96-9.28-0.8 0-1.6 0.16-2.4 0.32-0.96 0.16-1.76-0.32-1.92-1.12-0.16-0.64 0.32-1.44 0.96-1.6 0.96-0.16 2.080-0.32 3.2-0.32 10.080 0 15.68 11.040 16 11.52 0.16 0.48 0.16 0.96 0 1.28-0.8 1.6-1.92 3.040-3.040 4.48-0.32 0.16-0.8 0.48-1.12 0.48zM15.84 21.6c-0.64 0-1.44-0.16-2.080-0.32-0.64-0.32-1.28-0.64-1.76-1.12s-0.96-1.12-1.12-1.76c-0.32-0.64-0.48-1.44-0.32-2.080 0-0.8 0.16-1.44 0.48-2.080 0.16-0.96 0.64-1.6 1.12-2.080 0.64-0.48 1.44-0.48 2.080 0 0.48 0.64 0.48 1.44 0 2.080-0.32 0.16-0.48 0.48-0.64 0.8s-0.32 0.64-0.32 0.96c0 0.32 0 0.64 0.16 0.96s0.32 0.64 0.64 0.8c0.32 0.32 0.48 0.48 0.8 0.64s0.64 0.16 0.96 0.16c0.32 0 0.64-0.16 0.96-0.16 0.32-0.16 0.64-0.32 0.8-0.64 0.48-0.64 1.44-0.64 2.080 0 0.64 0.48 0.64 1.44 0 2.080-0.48 0.48-1.12 0.96-1.76 1.28-0.48 0.32-1.12 0.48-2.080 0.48 0.16 0 0.16 0 0 0z"></path>
<path d="M30.72 32.16c-0.32 0-0.8-0.16-0.96-0.48l-29.44-29.28c-0.64-0.64-0.64-1.44 0-2.080s1.44-0.64 2.080 0l29.28 29.28c0.64 0.64 0.64 1.44 0 2.080-0.32 0.32-0.64 0.48-0.96 0.48z"></path>
</symbol>
<symbol id="icon-pause-square" viewBox="0 0 26 32">
<path d="M23.36 31.040c-0.96 0-1.92-0.96-1.92-2.24v-25.6c0-1.28 0.96-1.92 2.24-1.92s1.92 0.64 1.92 1.92v25.6c0 1.28-0.96 2.24-2.24 2.24zM2.24 31.040c-1.28 0-2.24-0.96-2.24-2.24v-25.6c0-1.28 0.96-1.92 1.92-1.92s2.24 0.64 2.24 1.92v25.6c0 1.28-0.96 2.24-1.92 2.24z"></path>
</symbol>
<symbol id="icon-calendar" viewBox="0 0 32 32">
<path d="M25.333 30.533h-18.667c-2.133 0-3.867-1.733-3.867-3.867v-18.667c0-2.133 1.733-3.867 3.867-3.867h18.667c2.133 0 3.867 1.733 3.867 3.867v18.667c0 2.133-1.733 3.867-3.867 3.867zM6.667 6.533c-0.8 0-1.467 0.667-1.467 1.467v18.667c0 0.8 0.667 1.467 1.467 1.467h18.667c0.8 0 1.467-0.667 1.467-1.467v-18.667c0-0.8-0.667-1.467-1.467-1.467h-18.667z"></path>
<path d="M21.333 9.2c-0.667 0-1.2-0.533-1.2-1.2v-5.333c0-0.667 0.533-1.2 1.2-1.2s1.2 0.533 1.2 1.2v5.333c0 0.667-0.533 1.2-1.2 1.2z"></path>
<path d="M10.667 9.2c-0.667 0-1.2-0.533-1.2-1.2v-5.333c0-0.667 0.533-1.2 1.2-1.2s1.2 0.533 1.2 1.2v5.333c0 0.667-0.533 1.2-1.2 1.2z"></path>
<path d="M28 14.533h-24c-0.667 0-1.2-0.533-1.2-1.2s0.533-1.2 1.2-1.2h24c0.667 0 1.2 0.533 1.2 1.2s-0.533 1.2-1.2 1.2z"></path>
</symbol>
<symbol id="icon-chevron-down" viewBox="0 0 32 32">
<path d="M16 21.689c-0.533 0-0.889-0.178-1.244-0.533l-8-7.822c-0.711-0.711-0.711-1.778 0-2.489s1.778-0.711 2.489 0l6.756 6.578 6.756-6.756c0.711-0.711 1.778-0.711 2.489 0s0.711 1.778 0 2.489l-8 8.178c-0.356 0.356-0.711 0.356-1.244 0.356z"></path>
</symbol>
<!-- <symbol id="icon-heart" viewBox="0 0 32 32">
<path d="M29.415 4.545c-1.676-1.676-3.894-2.591-6.262-2.591s-4.593 0.923-6.268 2.598l-0.875 0.875-0.889-0.889c-1.676-1.676-3.908-2.605-6.275-2.605-2.361 0-4.586 0.923-6.255 2.591-1.676 1.676-2.598 3.901-2.591 6.268 0 2.368 0.929 4.586 2.605 6.262l12.74 12.74c0.176 0.176 0.414 0.271 0.644 0.271s0.468-0.088 0.644-0.265l12.767-12.72c1.676-1.676 2.598-3.901 2.598-6.268 0.007-2.368-0.909-4.593-2.585-6.268zM28.113 15.786l-12.123 12.075-12.096-12.096c-1.33-1.33-2.062-3.094-2.062-4.973s0.726-3.643 2.056-4.966c1.323-1.323 3.087-2.056 4.959-2.056 1.879 0 3.65 0.733 4.979 2.062l1.533 1.533c0.36 0.36 0.936 0.36 1.296 0l1.52-1.52c1.33-1.33 3.1-2.062 4.973-2.062s3.636 0.733 4.966 2.056c1.33 1.33 2.056 3.094 2.056 4.973 0.007 1.879-0.726 3.643-2.056 4.973z"></path>
</symbol>
<symbol id="icon-heart-active" viewBox="0 0 32 32">
<path d="M27.787 6.147c-0.681-0.681-1.49-1.222-2.38-1.59s-1.844-0.559-2.807-0.559c-0.963 0-1.917 0.19-2.807 0.559s-1.698 0.909-2.379 1.591l-1.414 1.413-1.413-1.413c-1.375-1.376-3.241-2.148-5.187-2.148s-3.811 0.773-5.187 2.148c-1.375 1.376-2.148 3.241-2.148 5.187s0.773 3.811 2.148 5.187l11.786 11.787 11.787-11.787c0.681-0.681 1.222-1.49 1.59-2.38s0.559-1.844 0.559-2.807c0-0.963-0.19-1.917-0.559-2.807s-0.909-1.699-1.59-2.38z"></path>
<path stroke-linejoin="round" stroke-linecap="butt" stroke-miterlimit="4" stroke-width="1.7778" d="M25.407 4.556c-0.89-0.369-1.844-0.559-2.807-0.559s-1.917 0.19-2.807 0.559c-0.89 0.369-1.698 0.909-2.379 1.59l-1.414 1.413-1.413-1.413c-1.375-1.376-3.241-2.148-5.187-2.148s-3.811 0.773-5.187 2.148c-1.375 1.376-2.148 3.241-2.148 5.187s0.773 3.811 2.148 5.187l11.786 11.787 11.787-11.787c0.681-0.681 1.222-1.49 1.59-2.38s0.559-1.844 0.559-2.807c0-0.963-0.19-1.917-0.559-2.807s-0.909-1.699-1.59-2.38c-0.681-0.681-1.49-1.222-2.38-1.591z"></path>
</symbol> -->
<!-- <symbol id="icon-search-conv" viewBox="0 0 32 32">
<path d="M13.157 2.322c-0.919 0.112-1.753 0.31-2.547 0.591l0.083-0.026c-4.506 1.544-7.797 5.49-8.368 10.27l-0.006 0.059c-0.052 0.43-0.081 0.928-0.081 1.432 0 1.416 0.233 2.778 0.662 4.049l-0.026-0.089c0.626 1.876 1.579 3.404 3.012 4.839 1.016 1.037 2.216 1.89 3.547 2.506l0.074 0.031c3.98 1.783 8.507 1.408 12.092-0.999l0.507-0.341 2.4 2.396c2.754 2.747 2.686 2.693 3.493 2.693 0.535 0 0.905-0.144 1.248-0.485 0.341-0.343 0.485-0.713 0.485-1.248 0-0.807 0.053-0.74-2.693-3.493l-2.396-2.4 0.341-0.507c2.407-3.586 2.782-8.112 0.999-12.092-0.647-1.406-1.5-2.605-2.535-3.619l-0.002-0.002c-1.604-1.631-3.661-2.812-5.968-3.337l-0.082-0.016c-0.84-0.183-1.804-0.288-2.793-0.288-0.51 0-1.013 0.028-1.508 0.082l0.061-0.005zM15.947 5.872c2.028 0.309 3.792 1.261 5.117 2.639l0.003 0.003c1.296 1.358 2.064 2.903 2.384 4.791 0.108 0.638 0.108 2.085 0 2.722-0.255 1.544-0.866 2.913-1.746 4.065l0.016-0.022c-0.506 0.605-1.047 1.145-1.631 1.635l-0.020 0.016c-1.13 0.863-2.499 1.474-3.989 1.722l-0.053 0.007c-0.59 0.1-2.023 0.11-2.613 0.020-3.911-0.586-6.964-3.639-7.544-7.501l-0.006-0.049c-0.040-0.376-0.063-0.812-0.063-1.253s0.023-0.877 0.067-1.307l-0.005 0.054c0.285-1.981 1.2-3.71 2.532-5.015l0.001-0.001c1.572-1.572 3.472-2.437 5.71-2.603 0.382-0.028 1.371 0.014 1.84 0.078z"></path>
</symbol> -->
<!-- <symbol id="icon-star" viewBox="0 0 32 32">
<path stroke-linejoin="miter" stroke-linecap="butt" stroke-miterlimit="4" stroke-width="2.4" d="M12.4 9.394l3.6-6.822 3.6 6.822c0.318 0.603 0.899 1.025 1.571 1.141l7.601 1.315-5.376 5.532c-0.475 0.489-0.697 1.171-0.6 1.846l1.098 7.635-6.922-3.404c-0.612-0.301-1.329-0.301-1.941 0l-6.922 3.404 1.098-7.635c0.097-0.675-0.125-1.357-0.6-1.846l-5.376-5.532 7.601-1.315c0.672-0.116 1.252-0.538 1.571-1.141zM29.035 11.579v0zM7.767 27.031c0 0 0 0 0 0h-0z"></path>
</symbol> -->
<!-- <symbol id="icon-upload-cloud" viewBox="0 0 32 32">
<path d="M25.747 14.049c-0.406 0-0.808 0.039-1.202 0.116-0.18-4.839-4.172-8.72-9.054-8.72-4.489 0-8.288 3.322-8.954 7.688-3.62 0.088-6.537 3.061-6.537 6.701 0 3.696 3.007 6.703 6.703 6.703h5.608c0.424 0 0.768-0.344 0.768-0.768s-0.344-0.768-0.768-0.768h-5.608c-2.849 0-5.167-2.318-5.167-5.167s2.318-5.167 5.167-5.167c0.14 0 0.288 0.007 0.452 0.021l0.778 0.067 0.054-0.779c0.272-3.923 3.569-6.996 7.504-6.996 4.149 0 7.525 3.376 7.525 7.525 0 0.191-0.009 0.395-0.028 0.623l-0.101 1.225 1.145-0.447c0.548-0.214 1.125-0.323 1.714-0.323 2.601 0 4.717 2.116 4.717 4.717s-2.116 4.717-4.717 4.717c-0.068 0-2.11-0.004-4.142-0.008-2.018-0.004-4.028-0.008-4.095-0.008-0.478 0-0.728-0.23-0.743-0.684v-8.287l0.833 0.99c0.273 0.325 0.757 0.366 1.082 0.093s0.366-0.757 0.093-1.082l-1.846-2.193c-0.233-0.276-0.567-0.435-0.917-0.435s-0.684 0.158-0.917 0.435l-1.846 2.193c-0.273 0.324-0.232 0.809 0.093 1.082 0.144 0.121 0.319 0.18 0.494 0.18 0.219 0 0.436-0.093 0.588-0.273l0.809-0.961v8.266c0 0.889 0.607 2.212 2.278 2.212 0.067 0 2.075 0.004 4.091 0.008 2.034 0.004 4.077 0.008 4.146 0.008 3.448 0 6.253-2.805 6.253-6.253s-2.805-6.253-6.253-6.253z"></path>
</symbol> -->

<!-- <symbol id="icon-trash1" viewBox="0 0 32 32">
<path d="M29.089 3.015h-8.601v-1.518c0-0.826-0.671-1.497-1.495-1.497h-5.987c-0.824 0-1.495 0.672-1.495 1.497v1.518h-8.601c-0.416 0-0.753 0.337-0.753 0.753s0.337 0.753 0.753 0.753h1.396l0.952 24.775c0.058 1.516 1.293 2.704 2.81 2.704h15.863c1.518 0 2.752-1.188 2.81-2.704l0.952-24.775h1.396c0.416 0 0.753-0.337 0.753-0.753s-0.337-0.753-0.753-0.753zM13.018 1.506h5.964v1.509h-5.964v-1.509zM25.236 29.238c-0.027 0.704-0.6 1.256-1.305 1.256h-15.863c-0.705 0-1.278-0.552-1.305-1.256l-0.95-24.717h20.372l-0.95 24.717z"></path>
<path d="M11.414 11.348c-0.008-0.411-0.343-0.739-0.753-0.739-0.005 0-0.010 0-0.015 0-0.416 0.008-0.746 0.352-0.738 0.767l0.236 12.29c0.008 0.411 0.343 0.739 0.753 0.739 0.005 0 0.010 0 0.015-0 0.416-0.008 0.746-0.352 0.738-0.767l-0.236-12.29z"></path>
<path d="M16 10.61c-0.416 0-0.753 0.337-0.753 0.753v12.29c0 0.416 0.337 0.753 0.753 0.753s0.753-0.337 0.753-0.753v-12.29c0-0.416-0.337-0.753-0.753-0.753z"></path>
<path d="M21.353 10.61c-0.414-0.009-0.759 0.323-0.767 0.738l-0.236 12.29c-0.008 0.416 0.323 0.759 0.738 0.767 0.005 0 0.010 0 0.015 0 0.409 0 0.745-0.328 0.753-0.739l0.236-12.29c0.008-0.416-0.323-0.759-0.738-0.767z"></path>
</symbol> -->
<!-- <symbol id="icon-cross-small-converted" viewBox="0 0 32 32">
<path d="M6.211 5.295c-0.46 0.185-0.785 0.524-0.929 0.964-0.086 0.263-0.049 0.748 0.077 1.021 0.067 0.147 1.408 1.527 4.342 4.467l4.244 4.253-4.244 4.253c-2.849 2.857-4.278 4.324-4.346 4.467-0.141 0.298-0.14 0.935 0.004 1.225 0.134 0.271 0.426 0.563 0.697 0.697 0.289 0.144 0.927 0.145 1.225 0.004 0.143-0.068 1.61-1.497 4.467-4.346l4.253-4.244 4.253 4.244c2.857 2.849 4.324 4.278 4.467 4.346 0.298 0.141 0.935 0.14 1.225-0.004 0.271-0.134 0.563-0.426 0.697-0.697 0.144-0.289 0.145-0.927 0.004-1.225-0.068-0.143-1.497-1.61-4.346-4.467l-4.244-4.253 4.244-4.253c2.849-2.857 4.278-4.324 4.346-4.467 0.141-0.298 0.14-0.935-0.004-1.225-0.134-0.271-0.426-0.563-0.697-0.697-0.289-0.144-0.927-0.145-1.225-0.004-0.143 0.068-1.61 1.497-4.467 4.346l-4.253 4.244-4.253-4.244c-2.921-2.913-4.32-4.275-4.467-4.343-0.257-0.119-0.842-0.154-1.069-0.063z"></path>
</symbol> -->
<!-- <symbol id="icon-burger" viewBox="0 0 32 32">
<path d="M3.564 6.751c-0.481 0.148-0.897 0.727-0.897 1.249 0 0.536 0.416 1.103 0.919 1.252 0.242 0.071 1.7 0.081 12.414 0.081s12.172-0.010 12.414-0.081c0.503-0.149 0.919-0.716 0.919-1.252s-0.416-1.103-0.919-1.252c-0.242-0.071-1.696-0.081-12.437-0.077-10.43 0.004-12.199 0.015-12.413 0.081zM3.564 14.751c-0.481 0.148-0.897 0.727-0.897 1.249 0 0.536 0.416 1.103 0.919 1.252 0.242 0.071 1.7 0.081 12.414 0.081s12.172-0.010 12.414-0.081c0.503-0.149 0.919-0.716 0.919-1.252s-0.416-1.103-0.919-1.252c-0.242-0.071-1.696-0.081-12.437-0.077-10.43 0.004-12.199 0.015-12.413 0.081zM3.564 22.751c-0.481 0.148-0.897 0.727-0.897 1.249 0 0.536 0.416 1.103 0.919 1.252 0.242 0.071 1.7 0.081 12.414 0.081s12.172-0.010 12.414-0.081c0.503-0.149 0.919-0.716 0.919-1.252s-0.416-1.103-0.919-1.252c-0.242-0.071-1.696-0.081-12.437-0.077-10.43 0.004-12.199 0.015-12.413 0.081z"></path>
</symbol> -->
</defs>
</svg>
