<svg aria-hidden="true" style="position: absolute; width: 0; height: 0; overflow: hidden;" version="1.1" xmlns="http://www.w3.org/2000/svg" xmlns:xlink="http://www.w3.org/1999/xlink">
<defs>
<symbol id="icon-logo" viewBox="0 0 83 32">
<path d="M80.941 13.714c1.040 0 1.882 0.843 1.882 1.882v0.807c0 1.040-0.843 1.882-1.882 1.882h-2.151c-1.039 0-1.882 0.843-1.882 1.882v5.378c0 1.040-0.843 1.882-1.882 1.882h-2.151c-1.040 0-1.882 0.843-1.882 1.882v0.807c0 1.040-0.843 1.882-1.882 1.882h-5.109c-1.040 0-1.882-0.843-1.882-1.882v-9.95c0-1.040-0.843-1.882-1.882-1.882h-37.647c-1.040 0-1.882 0.843-1.882 1.882v9.95c0 1.040-0.843 1.882-1.882 1.882h-5.109c-1.040 0-1.882-0.843-1.882-1.882v-0.807c0-1.040-0.843-1.882-1.882-1.882h-2.151c-1.040 0-1.882-0.843-1.882-1.882v-5.378c0-1.040-0.843-1.882-1.882-1.882h-2.151c-1.040 0-1.882-0.843-1.882-1.882v-0.807c0-1.040 0.843-1.882 1.882-1.882h2.151c1.040 0 1.882-0.843 1.882-1.882v-5.378c0-1.040 0.843-1.882 1.882-1.882h2.151c1.040 0 1.882-0.843 1.882-1.882v-0.807c0-1.040 0.843-1.882 1.882-1.882h5.109c1.040 0 1.882 0.843 1.882 1.882v9.95c0 1.040 0.843 1.882 1.882 1.882h37.647c1.040 0 1.882-0.843 1.882-1.882v-9.95c0-1.040 0.843-1.882 1.882-1.882h5.109c1.040 0 1.882 0.843 1.882 1.882v0.807c0 1.040 0.843 1.882 1.882 1.882h2.151c1.040 0 1.882 0.843 1.882 1.882v5.378c0 1.040 0.843 1.882 1.882 1.882h2.151z"></path>
</symbol>
<symbol id="icon-user" viewBox="0 0 32 32">
<path d="M16.157 5.333c1.415 0 2.771 0.562 3.771 1.562s1.562 2.357 1.562 3.771-0.562 2.771-1.562 3.771c-1 1-2.357 1.562-3.771 1.562s-2.771-0.562-3.771-1.562c-1-1-1.562-2.357-1.562-3.771s0.562-2.771 1.562-3.771c1-1 2.357-1.562 3.771-1.562zM16.157 26.667c0 0 10.667 0 10.667-2.667 0-3.2-5.2-6.667-10.667-6.667s-10.667 3.467-10.667 6.667c0 2.667 10.667 2.667 10.667 2.667z"></path>
</symbol>
<symbol id="icon-chevron-right" viewBox="0 0 32 32">
<path d="M10.914 29.914l-2.828-2.829 11.586-11.586-11.586-11.586 2.828-2.828 14.414 14.414-14.414 14.414z"></path>
</symbol>
<symbol id="icon-chevron-left" viewBox="0 0 32 32">
<path d="M21.086 1.086l2.828 2.828-11.586 11.586 11.586 11.586-2.828 2.829-14.414-14.414 14.414-14.414z"></path>
</symbol>
<!-- <symbol id="icon-arrow-left" viewBox="0 0 32 32">
<path d="M14.133 16.947c-0.125-0.124-0.224-0.271-0.292-0.434s-0.103-0.337-0.103-0.513 0.035-0.35 0.103-0.513c0.068-0.163 0.167-0.31 0.292-0.434l6.12-6.107c0.125-0.124 0.224-0.271 0.292-0.434s0.103-0.337 0.103-0.513-0.035-0.35-0.103-0.513c-0.068-0.162-0.167-0.31-0.292-0.434-0.25-0.248-0.588-0.388-0.94-0.388s-0.69 0.139-0.94 0.388l-6.12 6.12c-0.749 0.75-1.17 1.767-1.17 2.827s0.421 2.077 1.17 2.827l6.12 6.12c0.248 0.246 0.583 0.385 0.933 0.387 0.175 0.001 0.349-0.033 0.512-0.099s0.31-0.164 0.435-0.288c0.125-0.124 0.224-0.271 0.292-0.434s0.103-0.337 0.103-0.513-0.035-0.35-0.103-0.513c-0.068-0.163-0.167-0.31-0.292-0.434l-6.12-6.107z"></path>
</symbol>
<symbol id="icon-arrow-right" viewBox="0 0 32 32">
<path d="M17.867 16.947c0.125-0.124 0.224-0.271 0.292-0.434s0.103-0.337 0.103-0.513-0.035-0.35-0.103-0.513c-0.068-0.163-0.167-0.31-0.292-0.434l-6.12-6.107c-0.125-0.124-0.224-0.271-0.292-0.434s-0.103-0.337-0.103-0.513c0-0.176 0.035-0.35 0.103-0.513s0.167-0.31 0.292-0.434c0.25-0.248 0.588-0.388 0.94-0.388s0.69 0.139 0.94 0.388l6.12 6.12c0.749 0.75 1.17 1.767 1.17 2.827s-0.421 2.077-1.17 2.827l-6.12 6.12c-0.248 0.246-0.584 0.385-0.933 0.387-0.175 0.001-0.349-0.033-0.512-0.099s-0.31-0.164-0.435-0.288c-0.125-0.124-0.224-0.271-0.292-0.434s-0.103-0.337-0.103-0.513 0.035-0.35 0.103-0.513c0.068-0.163 0.167-0.31 0.292-0.434l6.12-6.107z"></path>
</symbol> -->
<symbol id="icon-circle-done" viewBox="0 0 32 32">
<path d="M16 29.333c-7.364 0-13.333-5.969-13.333-13.333s5.969-13.333 13.333-13.333 13.333 5.969 13.333 13.333c0 7.364-5.969 13.333-13.333 13.333zM14.459 21.98l9.427-9.428-1.885-1.885-7.541 7.543-3.772-3.772-1.885 1.885 5.657 5.657z"></path>
</symbol>
<!-- <symbol id="icon-done" viewBox="0 0 44 32">
<path stroke-linejoin="round" stroke-linecap="round" stroke-miterlimit="4" stroke-width="3.6923" d="M40.206 3.487l-24.82 24.82-11.282-11.282"></path>
</symbol> -->
<symbol id="icon-bubble" viewBox="0 0 32 32">
<path d="M20.793 16.346c3.778 0 6.84-3.062 6.84-6.84s-3.062-6.84-6.84-6.84c-3.778 0-6.84 3.062-6.84 6.84s3.062 6.84 6.84 6.84z"></path>
<path d="M8.476 25.919c2.268 0 4.107-1.839 4.107-4.107s-1.839-4.107-4.107-4.107c-2.268 0-4.107 1.839-4.107 4.107s1.839 4.107 4.107 4.107z"></path>
<path d="M22.151 29.332c1.885 0 3.413-1.528 3.413-3.413s-1.528-3.413-3.413-3.413c-1.885 0-3.413 1.528-3.413 3.413s1.528 3.413 3.413 3.413z"></path>
</symbol>
<symbol id="icon-fork" viewBox="0 0 32 32">
<path d="M24 4c0.327 0 0.642 0.12 0.886 0.337s0.4 0.516 0.438 0.84l0.009 0.156v21.333c-0 0.34-0.131 0.667-0.364 0.914s-0.552 0.396-0.891 0.416c-0.339 0.020-0.673-0.090-0.934-0.308s-0.428-0.528-0.468-0.865l-0.009-0.156v-6.667h-1.333c-0.327 0-0.642-0.12-0.886-0.337s-0.4-0.516-0.438-0.84l-0.009-0.156v-8c0-2.947 2-6.667 4-6.667zM16 4c0.327 0 0.642 0.12 0.886 0.337s0.4 0.516 0.438 0.84l0.009 0.156v6.667c-0 1.183-0.393 2.331-1.117 3.266s-1.738 1.603-2.883 1.899v9.501c-0 0.34-0.13 0.667-0.364 0.914s-0.552 0.396-0.891 0.416c-0.339 0.020-0.673-0.090-0.934-0.308s-0.428-0.528-0.468-0.865l-0.009-0.156v-9.501c-1.099-0.284-2.079-0.912-2.798-1.791s-1.137-1.965-1.196-3.099l-0.007-0.275v-6.667c0-0.34 0.13-0.667 0.364-0.914s0.552-0.396 0.891-0.416c0.339-0.020 0.673 0.090 0.934 0.309s0.428 0.528 0.468 0.865l0.009 0.156v6.667c0 0.468 0.123 0.928 0.357 1.333s0.571 0.742 0.976 0.976v-8.976c0-0.34 0.13-0.667 0.364-0.914s0.552-0.396 0.891-0.416c0.339-0.020 0.673 0.090 0.934 0.309s0.428 0.528 0.468 0.865l0.009 0.156 0.001 8.976c0.372-0.215 0.687-0.517 0.917-0.88s0.37-0.776 0.406-1.204l0.009-0.225v-6.667c0-0.354 0.14-0.693 0.391-0.943s0.589-0.391 0.943-0.391z"></path>
</symbol>
<symbol id="icon-fire" viewBox="0 0 32 32">
<path d="M16.001 22.291c-0.946 0.72-2.898 2.5-2.898 4.925 0 1.601 1.3 2.904 2.897 2.904s2.897-1.303 2.897-2.904c0-2.297-1.954-4.161-2.895-4.925z"></path>
<path d="M22.789 5.57c-0.351-0.397-0.958-0.421-1.34-0.064l-4.412 4.117v-8.623c0-0.722-0.87-1.261-1.522-0.867-0.123 0.075-3.055 1.865-6.017 5.116-3.602 3.953-6.055 8.766-6.055 14.164 0 6.941 5.633 12.587 12.557 12.587-2.631 0-4.772-2.146-4.772-4.784 0-4.262 4.138-6.786 4.314-6.891 0.309-0.184 0.695-0.176 0.996 0.022 0.173 0.114 4.234 2.838 4.234 6.869 0 2.638-2.141 4.784-4.772 4.784 6.924 0 12.557-5.647 12.557-12.587 0-5.241-2.313-9.938-5.767-13.843z"></path>
</symbol>
<symbol id="icon-dumbbell" viewBox="0 0 32 32">
<path d="M5.2 8h-2.4c-0.665 0-1.2 0.535-1.2 1.2v5.2h-1.2c-0.22 0-0.4 0.18-0.4 0.4v2.4c0 0.22 0.18 0.4 0.4 0.4h1.2v5.2c0 0.665 0.535 1.2 1.2 1.2h2.4c0.665 0 1.2-0.535 1.2-1.2v-13.6c0-0.665-0.535-1.2-1.2-1.2zM31.6 14.4h-1.2v-5.2c0-0.665-0.535-1.2-1.2-1.2h-2.4c-0.665 0-1.2 0.535-1.2 1.2v13.6c0 0.665 0.535 1.2 1.2 1.2h2.4c0.665 0 1.2-0.535 1.2-1.2v-5.2h1.2c0.22 0 0.4-0.18 0.4-0.4v-2.4c0-0.22-0.18-0.4-0.4-0.4zM22.8 4.8h-2.4c-0.665 0-1.2 0.535-1.2 1.2v8.4h-6.4v-8.4c0-0.665-0.535-1.2-1.2-1.2h-2.4c-0.665 0-1.2 0.535-1.2 1.2v20c0 0.665 0.535 1.2 1.2 1.2h2.4c0.665 0 1.2-0.535 1.2-1.2v-8.4h6.4v8.4c0 0.665 0.535 1.2 1.2 1.2h2.4c0.665 0 1.2-0.535 1.2-1.2v-20c0-0.665-0.535-1.2-1.2-1.2z"></path>
</symbol>
<symbol id="icon-apple" viewBox="0 0 32 32">
<path d="M19.454 4.758c0.102-0.031 0.198-0.082 0.28-0.151s0.15-0.153 0.199-0.248 0.079-0.199 0.087-0.306c0.008-0.107-0.005-0.214-0.039-0.315s-0.088-0.195-0.159-0.275c-0.071-0.080-0.157-0.146-0.253-0.192s-0.201-0.073-0.308-0.078c-0.107-0.005-0.214 0.011-0.314 0.048-1.501 0.499-2.435 1.731-2.986 3.051-0.074 0.178-0.142 0.359-0.203 0.542-0.3-0.568-0.683-1.087-1.138-1.541-0.615-0.616-1.35-1.1-2.159-1.422s-1.675-0.475-2.546-0.45c-0.928 0.026-1.669 0.768-1.694 1.694-0.025 0.87 0.128 1.737 0.45 2.546s0.806 1.543 1.422 2.159l0.050 0.048c-1.344 0.291-2.559 1.007-3.464 2.042s-1.454 2.334-1.563 3.705l-0.010 0.118c-0.211 2.636 0.35 5.275 1.616 7.597l0.576 1.053c0.016 0.027 0.032 0.054 0.051 0.080l1.6 2.243c0.363 0.508 0.832 0.931 1.374 1.239s1.146 0.495 1.768 0.546c0.622 0.051 1.248-0.033 1.833-0.248s1.118-0.555 1.559-0.996c0.068-0.068 0.148-0.122 0.237-0.158s0.183-0.056 0.279-0.056c0.096 0 0.191 0.019 0.279 0.056s0.169 0.090 0.237 0.158c0.441 0.441 0.973 0.781 1.559 0.996s1.212 0.3 1.833 0.248c0.622-0.052 1.225-0.238 1.768-0.546s1.012-0.731 1.374-1.239l1.6-2.242c0.019-0.026 0.036-0.053 0.051-0.082l0.574-1.053c1.266-2.321 1.827-4.961 1.616-7.597l-0.008-0.118c-0.071-0.884-0.324-1.743-0.745-2.523s-0.998-1.465-1.697-2.010-1.503-0.94-2.362-1.158c-0.859-0.218-1.754-0.256-2.628-0.11l-2.651 0.442c0.016-1.090 0.208-2.315 0.638-3.349 0.448-1.080 1.114-1.848 2.013-2.149h0.002zM11.054 14.358c-0.246 0.078-0.473 0.203-0.67 0.369s-0.359 0.37-0.477 0.599c-0.296 0.557-0.499 1.475-0.312 2.974 0.021 0.208-0.040 0.416-0.17 0.579s-0.319 0.269-0.526 0.295c-0.207 0.026-0.416-0.030-0.583-0.157s-0.277-0.313-0.308-0.519c-0.213-1.702-0.016-2.984 0.488-3.926 0.512-0.96 1.291-1.478 2.053-1.733 0.1-0.033 0.205-0.046 0.31-0.039s0.207 0.036 0.301 0.083c0.094 0.047 0.178 0.112 0.247 0.191s0.121 0.172 0.155 0.271c0.033 0.1 0.046 0.205 0.039 0.31s-0.036 0.207-0.083 0.301c-0.047 0.094-0.112 0.178-0.191 0.247s-0.172 0.121-0.271 0.155z"></path>
</symbol>
<symbol id="icon-run" viewBox="0 0 32 32">
<path d="M29.647 9.451c-0.419-0.501-1.166-0.567-1.667-0.149l-3.282 2.757-1.509-3.739c-0.054-0.14-0.135-0.258-0.229-0.362-0.308-0.686-0.844-1.275-1.582-1.617-0.32-0.146-0.652-0.224-0.982-0.262-0.073-0.038-0.139-0.088-0.222-0.114l-5.775-1.61c-0.324-0.088-0.65-0.031-0.917 0.125-0.317 0.107-0.589 0.338-0.719 0.672l-2.175 5.592c-0.236 0.608 0.066 1.294 0.676 1.534 0.607 0.236 1.294-0.068 1.532-0.678l1.837-4.722 2.63 0.731c-0.064 0.104-0.133 0.201-0.185 0.312l-3.372 7.309c-0.049 0.107-0.075 0.217-0.109 0.328l-4.098 6.871-6.859 2.294c-0.776 0.58-0.941 1.674-0.367 2.45 0.577 0.778 1.674 0.943 2.448 0.369l7.018-2.417c0.215-0.156 0.371-0.36 0.489-0.58 0.088-0.094 0.189-0.168 0.256-0.284l2.443-4.096 4.337 3.696-4.641 5.23c-0.639 0.721-0.575 1.832 0.149 2.469 0.723 0.643 1.83 0.575 2.473-0.149l5.791-6.524c0.18-0.201 0.288-0.433 0.36-0.676 0.043-0.132 0.043-0.269 0.054-0.406 0-0.069 0.026-0.132 0.021-0.196-0.016-0.478-0.21-0.943-0.601-1.274l-3.991-3.403c0.288-0.274 0.532-0.6 0.709-0.983l2.585-5.599 0.828 2.206c0.035 0.196 0.1 0.388 0.239 0.549 0.125 0.149 0.284 0.248 0.454 0.317 0.017 0.009 0.038 0.010 0.059 0.016 0.107 0.038 0.216 0.075 0.329 0.080 0.133 0.012 0.269-0.005 0.405-0.043 0.004-0.002 0.005-0.002 0.005-0.002 0.036-0.009 0.073-0.002 0.109-0.017 0.192-0.073 0.34-0.196 0.466-0.34l4.71-3.998c0.501-0.421 0.289-1.166-0.132-1.667z"></path>
<path d="M23.689 6.602c1.823 0 3.301-1.478 3.301-3.301s-1.478-3.301-3.301-3.301c-1.823 0-3.301 1.478-3.301 3.301s1.478 3.301 3.301 3.301z"></path>
</symbol>
<symbol id="icon-play" viewBox="0 0 27 32">
<path d="M26.667 16l-26.667 15.396v-30.792l26.667 15.396z"></path>
</symbol>

<symbol id="icon-eye-off" viewBox="0 0 32 32">
<path d="M27 28c-0 0-0.001 0-0.002 0-0.276 0-0.525-0.112-0.705-0.293l-22-22c-0.17-0.179-0.275-0.422-0.275-0.689 0-0.552 0.448-1 1-1 0.267 0 0.51 0.105 0.689 0.275l22 22c0.181 0.181 0.293 0.431 0.293 0.707 0 0.552-0.447 1-1 1h-0z"></path>
<path d="M15.979 24c-2.593 0-5.094-0.767-7.432-2.281-2.129-1.375-4.046-3.344-5.544-5.688v-0.005c1.246-1.786 2.611-3.296 4.077-4.513 0.027-0.023 0.045-0.057 0.045-0.096 0-0.034-0.014-0.065-0.036-0.088v0l-1.245-1.243c-0.023-0.023-0.054-0.037-0.089-0.037-0.031 0-0.059 0.011-0.081 0.030l0-0c-1.558 1.313-3.003 2.922-4.317 4.808-0.224 0.318-0.358 0.714-0.358 1.14 0 0.402 0.119 0.775 0.323 1.088l-0.005-0.008c1.651 2.583 3.775 4.759 6.143 6.291 2.666 1.727 5.534 2.602 8.519 2.602 1.697-0.005 3.325-0.293 4.842-0.818l-0.105 0.032c0.050-0.017 0.085-0.064 0.085-0.118 0-0.035-0.014-0.066-0.037-0.088v0l-1.349-1.349c-0.045-0.044-0.107-0.071-0.175-0.071-0.023 0-0.045 0.003-0.067 0.009l0.002-0c-0.958 0.257-2.058 0.404-3.192 0.404-0.002 0-0.004 0-0.006 0h0z"></path>
<path d="M30.677 14.912c-1.654-2.557-3.799-4.73-6.204-6.283-2.661-1.72-5.598-2.629-8.494-2.629-1.678 0.003-3.287 0.297-4.78 0.833l0.099-0.031c-0.049 0.018-0.084 0.064-0.084 0.118 0 0.035 0.014 0.066 0.037 0.089v0l1.347 1.347c0.045 0.044 0.107 0.072 0.175 0.072 0.024 0 0.047-0.003 0.069-0.010l-0.002 0c0.941-0.265 2.022-0.417 3.138-0.418h0c2.543 0 5.036 0.777 7.409 2.313 2.169 1.4 4.109 3.367 5.61 5.688 0.001 0.001 0.002 0.003 0.002 0.005s-0.001 0.004-0.002 0.005v-0c-1.123 1.752-2.451 3.251-3.976 4.52l-0.031 0.025c-0.028 0.023-0.046 0.058-0.046 0.096 0 0.034 0.014 0.065 0.036 0.088v0l1.244 1.243c0.023 0.023 0.054 0.037 0.089 0.037 0.030 0 0.058-0.011 0.080-0.029l-0 0c1.66-1.404 3.080-3.020 4.239-4.82l0.051-0.085c0.198-0.306 0.316-0.68 0.316-1.082 0-0.406-0.12-0.783-0.327-1.099l0.005 0.008z"></path>
<path d="M16 10c-0.001 0-0.002 0-0.003 0-0.472 0-0.932 0.055-1.373 0.158l0.041-0.008c-0.057 0.012-0.1 0.062-0.1 0.122 0 0.035 0.014 0.066 0.037 0.089v0l7.037 7.035c0.023 0.023 0.054 0.037 0.089 0.037 0.060 0 0.11-0.042 0.122-0.099l0-0.001c0.095-0.401 0.15-0.861 0.15-1.334 0-3.314-2.686-6-6-6-0 0-0 0-0 0v0z"></path>
<path d="M10.361 14.604c-0.023-0.023-0.054-0.037-0.089-0.037-0.060 0-0.11 0.042-0.122 0.099l-0 0.001c-0.096 0.402-0.151 0.864-0.151 1.339 0 3.314 2.686 6 6 6 0.475 0 0.937-0.055 1.379-0.159l-0.041 0.008c0.057-0.012 0.1-0.062 0.1-0.122 0-0.035-0.014-0.066-0.037-0.089v0z"></path>
</symbol>
<symbol id="icon-eye-on" viewBox="0 0 32 32">
<path d="M20.667 16c0 2.577-2.089 4.667-4.667 4.667s-4.667-2.089-4.667-4.667v0c0-2.577 2.089-4.667 4.667-4.667s4.667 2.089 4.667 4.667v0z"></path>
<path d="M16 4.667c-4.576 0-8.167 2.045-10.739 4.32-2.568 2.273-4.176 4.816-4.821 5.949-0.179 0.306-0.285 0.673-0.285 1.065s0.106 0.76 0.29 1.075l-0.005-0.010c0.645 1.133 2.253 3.677 4.821 5.947 2.573 2.275 6.163 4.32 10.739 4.32s8.167-2.045 10.739-4.32c2.568-2.272 4.176-4.815 4.821-5.948 0.179-0.306 0.285-0.673 0.285-1.065s-0.106-0.76-0.291-1.075l0.005 0.010c-0.645-1.133-2.253-3.676-4.821-5.947-2.573-2.276-6.163-4.321-10.739-4.321zM2.177 15.927c0.588-1.032 2.068-3.371 4.409-5.44 2.333-2.068 5.473-3.82 9.413-3.82s7.079 1.753 9.413 3.819c2.341 2.071 3.821 4.409 4.409 5.44 0.014 0.021 0.022 0.047 0.023 0.074v0c-0.001 0.028-0.009 0.053-0.023 0.075l0-0.001c-0.588 1.032-2.068 3.369-4.409 5.44-2.333 2.065-5.473 3.819-9.413 3.819s-7.079-1.753-9.413-3.819c-2.341-2.071-3.821-4.408-4.409-5.44-0.014-0.021-0.022-0.047-0.023-0.074v-0c0.001-0.027 0.009-0.053 0.023-0.074l-0 0.001z"></path>
</symbol>



<symbol id="icon-heart" viewBox="0 0 32 32">
<path d="M29.415 4.545c-1.676-1.676-3.894-2.591-6.262-2.591s-4.593 0.923-6.268 2.598l-0.875 0.875-0.889-0.889c-1.676-1.676-3.908-2.605-6.275-2.605-2.361 0-4.586 0.923-6.255 2.591-1.676 1.676-2.598 3.901-2.591 6.268 0 2.368 0.929 4.586 2.605 6.262l12.74 12.74c0.176 0.176 0.414 0.271 0.644 0.271s0.468-0.088 0.644-0.265l12.767-12.72c1.676-1.676 2.598-3.901 2.598-6.268 0.007-2.368-0.909-4.593-2.585-6.268zM28.113 15.786l-12.123 12.075-12.096-12.096c-1.33-1.33-2.062-3.094-2.062-4.973s0.726-3.643 2.056-4.966c1.323-1.323 3.087-2.056 4.959-2.056 1.879 0 3.65 0.733 4.979 2.062l1.533 1.533c0.36 0.36 0.936 0.36 1.296 0l1.52-1.52c1.33-1.33 3.1-2.062 4.973-2.062s3.636 0.733 4.966 2.056c1.33 1.33 2.056 3.094 2.056 4.973 0.007 1.879-0.726 3.643-2.056 4.973z"></path>
</symbol>
<symbol id="icon-heart-active" viewBox="0 0 32 32">
<path d="M27.787 6.147c-0.681-0.681-1.49-1.222-2.38-1.59s-1.844-0.559-2.807-0.559c-0.963 0-1.917 0.19-2.807 0.559s-1.698 0.909-2.379 1.591l-1.414 1.413-1.413-1.413c-1.375-1.376-3.241-2.148-5.187-2.148s-3.811 0.773-5.187 2.148c-1.375 1.376-2.148 3.241-2.148 5.187s0.773 3.811 2.148 5.187l11.786 11.787 11.787-11.787c0.681-0.681 1.222-1.49 1.59-2.38s0.559-1.844 0.559-2.807c0-0.963-0.19-1.917-0.559-2.807s-0.909-1.699-1.59-2.38z"></path>
<path stroke-linejoin="round" stroke-linecap="butt" stroke-miterlimit="4" stroke-width="1.7778" d="M25.407 4.556c-0.89-0.369-1.844-0.559-2.807-0.559s-1.917 0.19-2.807 0.559c-0.89 0.369-1.698 0.909-2.379 1.59l-1.414 1.413-1.413-1.413c-1.375-1.376-3.241-2.148-5.187-2.148s-3.811 0.773-5.187 2.148c-1.375 1.376-2.148 3.241-2.148 5.187s0.773 3.811 2.148 5.187l11.786 11.787 11.787-11.787c0.681-0.681 1.222-1.49 1.59-2.38s0.559-1.844 0.559-2.807c0-0.963-0.19-1.917-0.559-2.807s-0.909-1.699-1.59-2.38c-0.681-0.681-1.49-1.222-2.38-1.591z"></path>
</symbol>
<symbol id="icon-search-conv" viewBox="0 0 32 32">
<path d="M13.157 2.322c-0.919 0.112-1.753 0.31-2.547 0.591l0.083-0.026c-4.506 1.544-7.797 5.49-8.368 10.27l-0.006 0.059c-0.052 0.43-0.081 0.928-0.081 1.432 0 1.416 0.233 2.778 0.662 4.049l-0.026-0.089c0.626 1.876 1.579 3.404 3.012 4.839 1.016 1.037 2.216 1.89 3.547 2.506l0.074 0.031c3.98 1.783 8.507 1.408 12.092-0.999l0.507-0.341 2.4 2.396c2.754 2.747 2.686 2.693 3.493 2.693 0.535 0 0.905-0.144 1.248-0.485 0.341-0.343 0.485-0.713 0.485-1.248 0-0.807 0.053-0.74-2.693-3.493l-2.396-2.4 0.341-0.507c2.407-3.586 2.782-8.112 0.999-12.092-0.647-1.406-1.5-2.605-2.535-3.619l-0.002-0.002c-1.604-1.631-3.661-2.812-5.968-3.337l-0.082-0.016c-0.84-0.183-1.804-0.288-2.793-0.288-0.51 0-1.013 0.028-1.508 0.082l0.061-0.005zM15.947 5.872c2.028 0.309 3.792 1.261 5.117 2.639l0.003 0.003c1.296 1.358 2.064 2.903 2.384 4.791 0.108 0.638 0.108 2.085 0 2.722-0.255 1.544-0.866 2.913-1.746 4.065l0.016-0.022c-0.506 0.605-1.047 1.145-1.631 1.635l-0.020 0.016c-1.13 0.863-2.499 1.474-3.989 1.722l-0.053 0.007c-0.59 0.1-2.023 0.11-2.613 0.020-3.911-0.586-6.964-3.639-7.544-7.501l-0.006-0.049c-0.040-0.376-0.063-0.812-0.063-1.253s0.023-0.877 0.067-1.307l-0.005 0.054c0.285-1.981 1.2-3.71 2.532-5.015l0.001-0.001c1.572-1.572 3.472-2.437 5.71-2.603 0.382-0.028 1.371 0.014 1.84 0.078z"></path>
</symbol>
<symbol id="icon-star" viewBox="0 0 32 32">
<path stroke-linejoin="miter" stroke-linecap="butt" stroke-miterlimit="4" stroke-width="2.4" d="M12.4 9.394l3.6-6.822 3.6 6.822c0.318 0.603 0.899 1.025 1.571 1.141l7.601 1.315-5.376 5.532c-0.475 0.489-0.697 1.171-0.6 1.846l1.098 7.635-6.922-3.404c-0.612-0.301-1.329-0.301-1.941 0l-6.922 3.404 1.098-7.635c0.097-0.675-0.125-1.357-0.6-1.846l-5.376-5.532 7.601-1.315c0.672-0.116 1.252-0.538 1.571-1.141zM29.035 11.579v0zM7.767 27.031c0 0 0 0 0 0h-0z"></path>
</symbol>
<symbol id="icon-upload-cloud" viewBox="0 0 32 32">
<path d="M25.747 14.049c-0.406 0-0.808 0.039-1.202 0.116-0.18-4.839-4.172-8.72-9.054-8.72-4.489 0-8.288 3.322-8.954 7.688-3.62 0.088-6.537 3.061-6.537 6.701 0 3.696 3.007 6.703 6.703 6.703h5.608c0.424 0 0.768-0.344 0.768-0.768s-0.344-0.768-0.768-0.768h-5.608c-2.849 0-5.167-2.318-5.167-5.167s2.318-5.167 5.167-5.167c0.14 0 0.288 0.007 0.452 0.021l0.778 0.067 0.054-0.779c0.272-3.923 3.569-6.996 7.504-6.996 4.149 0 7.525 3.376 7.525 7.525 0 0.191-0.009 0.395-0.028 0.623l-0.101 1.225 1.145-0.447c0.548-0.214 1.125-0.323 1.714-0.323 2.601 0 4.717 2.116 4.717 4.717s-2.116 4.717-4.717 4.717c-0.068 0-2.11-0.004-4.142-0.008-2.018-0.004-4.028-0.008-4.095-0.008-0.478 0-0.728-0.23-0.743-0.684v-8.287l0.833 0.99c0.273 0.325 0.757 0.366 1.082 0.093s0.366-0.757 0.093-1.082l-1.846-2.193c-0.233-0.276-0.567-0.435-0.917-0.435s-0.684 0.158-0.917 0.435l-1.846 2.193c-0.273 0.324-0.232 0.809 0.093 1.082 0.144 0.121 0.319 0.18 0.494 0.18 0.219 0 0.436-0.093 0.588-0.273l0.809-0.961v8.266c0 0.889 0.607 2.212 2.278 2.212 0.067 0 2.075 0.004 4.091 0.008 2.034 0.004 4.077 0.008 4.146 0.008 3.448 0 6.253-2.805 6.253-6.253s-2.805-6.253-6.253-6.253z"></path>
</symbol>
<!-- <symbol id="icon-user" viewBox="0 0 32 32">
<path stroke-linejoin="round" stroke-linecap="round" stroke-miterlimit="4" stroke-width="2.6667" d="M16 20c-4.227 0-7.986 2.041-10.379 5.208-0.515 0.682-0.773 1.022-0.764 1.483 0.006 0.356 0.23 0.805 0.51 1.025 0.362 0.284 0.865 0.284 1.869 0.284h17.527c1.005 0 1.507 0 1.869-0.284 0.28-0.22 0.503-0.669 0.51-1.025 0.008-0.461-0.249-0.801-0.764-1.483-2.393-3.167-6.152-5.208-10.379-5.208z"></path>
<path stroke-linejoin="round" stroke-linecap="round" stroke-miterlimit="4" stroke-width="2.6667" d="M16 16c3.314 0 6-2.686 6-6s-2.686-6-6-6c-3.314 0-6 2.686-6 6s2.686 6 6 6z"></path>
</symbol> -->
<symbol id="icon-trash" viewBox="0 0 32 32">
<path d="M29.089 3.015h-8.601v-1.518c0-0.826-0.671-1.497-1.495-1.497h-5.987c-0.824 0-1.495 0.672-1.495 1.497v1.518h-8.601c-0.416 0-0.753 0.337-0.753 0.753s0.337 0.753 0.753 0.753h1.396l0.952 24.775c0.058 1.516 1.293 2.704 2.81 2.704h15.863c1.518 0 2.752-1.188 2.81-2.704l0.952-24.775h1.396c0.416 0 0.753-0.337 0.753-0.753s-0.337-0.753-0.753-0.753zM13.018 1.506h5.964v1.509h-5.964v-1.509zM25.236 29.238c-0.027 0.704-0.6 1.256-1.305 1.256h-15.863c-0.705 0-1.278-0.552-1.305-1.256l-0.95-24.717h20.372l-0.95 24.717z"></path>
<path d="M11.414 11.348c-0.008-0.411-0.343-0.739-0.753-0.739-0.005 0-0.010 0-0.015 0-0.416 0.008-0.746 0.352-0.738 0.767l0.236 12.29c0.008 0.411 0.343 0.739 0.753 0.739 0.005 0 0.010 0 0.015-0 0.416-0.008 0.746-0.352 0.738-0.767l-0.236-12.29z"></path>
<path d="M16 10.61c-0.416 0-0.753 0.337-0.753 0.753v12.29c0 0.416 0.337 0.753 0.753 0.753s0.753-0.337 0.753-0.753v-12.29c0-0.416-0.337-0.753-0.753-0.753z"></path>
<path d="M21.353 10.61c-0.414-0.009-0.759 0.323-0.767 0.738l-0.236 12.29c-0.008 0.416 0.323 0.759 0.738 0.767 0.005 0 0.010 0 0.015 0 0.409 0 0.745-0.328 0.753-0.739l0.236-12.29c0.008-0.416-0.323-0.759-0.738-0.767z"></path>
</symbol>
<symbol id="icon-cross-small-converted" viewBox="0 0 32 32">
<path d="M6.211 5.295c-0.46 0.185-0.785 0.524-0.929 0.964-0.086 0.263-0.049 0.748 0.077 1.021 0.067 0.147 1.408 1.527 4.342 4.467l4.244 4.253-4.244 4.253c-2.849 2.857-4.278 4.324-4.346 4.467-0.141 0.298-0.14 0.935 0.004 1.225 0.134 0.271 0.426 0.563 0.697 0.697 0.289 0.144 0.927 0.145 1.225 0.004 0.143-0.068 1.61-1.497 4.467-4.346l4.253-4.244 4.253 4.244c2.857 2.849 4.324 4.278 4.467 4.346 0.298 0.141 0.935 0.14 1.225-0.004 0.271-0.134 0.563-0.426 0.697-0.697 0.144-0.289 0.145-0.927 0.004-1.225-0.068-0.143-1.497-1.61-4.346-4.467l-4.244-4.253 4.244-4.253c2.849-2.857 4.278-4.324 4.346-4.467 0.141-0.298 0.14-0.935-0.004-1.225-0.134-0.271-0.426-0.563-0.697-0.697-0.289-0.144-0.927-0.145-1.225-0.004-0.143 0.068-1.61 1.497-4.467 4.346l-4.253 4.244-4.253-4.244c-2.921-2.913-4.32-4.275-4.467-4.343-0.257-0.119-0.842-0.154-1.069-0.063z"></path>
</symbol>
<symbol id="icon-burger" viewBox="0 0 32 32">
<path d="M3.564 6.751c-0.481 0.148-0.897 0.727-0.897 1.249 0 0.536 0.416 1.103 0.919 1.252 0.242 0.071 1.7 0.081 12.414 0.081s12.172-0.010 12.414-0.081c0.503-0.149 0.919-0.716 0.919-1.252s-0.416-1.103-0.919-1.252c-0.242-0.071-1.696-0.081-12.437-0.077-10.43 0.004-12.199 0.015-12.413 0.081zM3.564 14.751c-0.481 0.148-0.897 0.727-0.897 1.249 0 0.536 0.416 1.103 0.919 1.252 0.242 0.071 1.7 0.081 12.414 0.081s12.172-0.010 12.414-0.081c0.503-0.149 0.919-0.716 0.919-1.252s-0.416-1.103-0.919-1.252c-0.242-0.071-1.696-0.081-12.437-0.077-10.43 0.004-12.199 0.015-12.413 0.081zM3.564 22.751c-0.481 0.148-0.897 0.727-0.897 1.249 0 0.536 0.416 1.103 0.919 1.252 0.242 0.071 1.7 0.081 12.414 0.081s12.172-0.010 12.414-0.081c0.503-0.149 0.919-0.716 0.919-1.252s-0.416-1.103-0.919-1.252c-0.242-0.071-1.696-0.081-12.437-0.077-10.43 0.004-12.199 0.015-12.413 0.081z"></path>
</symbol>
</defs>
</svg>
