<svg aria-hidden="true" style="position: absolute; width: 0; height: 0; overflow: hidden;" version="1.1" xmlns="http://www.w3.org/2000/svg" xmlns:xlink="http://www.w3.org/1999/xlink">
<defs>
<symbol id="icon-arrow-left" viewBox="0 0 32 32">
<path d="M14.133 16.947c-0.125-0.124-0.224-0.271-0.292-0.434s-0.103-0.337-0.103-0.513 0.035-0.35 0.103-0.513c0.068-0.163 0.167-0.31 0.292-0.434l6.12-6.107c0.125-0.124 0.224-0.271 0.292-0.434s0.103-0.337 0.103-0.513-0.035-0.35-0.103-0.513c-0.068-0.162-0.167-0.31-0.292-0.434-0.25-0.248-0.588-0.388-0.94-0.388s-0.69 0.139-0.94 0.388l-6.12 6.12c-0.749 0.75-1.17 1.767-1.17 2.827s0.421 2.077 1.17 2.827l6.12 6.12c0.248 0.246 0.583 0.385 0.933 0.387 0.175 0.001 0.349-0.033 0.512-0.099s0.31-0.164 0.435-0.288c0.125-0.124 0.224-0.271 0.292-0.434s0.103-0.337 0.103-0.513-0.035-0.35-0.103-0.513c-0.068-0.163-0.167-0.31-0.292-0.434l-6.12-6.107z"></path>
</symbol>
<symbol id="icon-arrow-right" viewBox="0 0 32 32">
<path d="M17.867 16.947c0.125-0.124 0.224-0.271 0.292-0.434s0.103-0.337 0.103-0.513-0.035-0.35-0.103-0.513c-0.068-0.163-0.167-0.31-0.292-0.434l-6.12-6.107c-0.125-0.124-0.224-0.271-0.292-0.434s-0.103-0.337-0.103-0.513c0-0.176 0.035-0.35 0.103-0.513s0.167-0.31 0.292-0.434c0.25-0.248 0.588-0.388 0.94-0.388s0.69 0.139 0.94 0.388l6.12 6.12c0.749 0.75 1.17 1.767 1.17 2.827s-0.421 2.077-1.17 2.827l-6.12 6.12c-0.248 0.246-0.584 0.385-0.933 0.387-0.175 0.001-0.349-0.033-0.512-0.099s-0.31-0.164-0.435-0.288c-0.125-0.124-0.224-0.271-0.292-0.434s-0.103-0.337-0.103-0.513 0.035-0.35 0.103-0.513c0.068-0.163 0.167-0.31 0.292-0.434l6.12-6.107z"></path>
</symbol>
<symbol id="icon-done" viewBox="0 0 44 32">
<path stroke-linejoin="round" stroke-linecap="round" stroke-miterlimit="4" stroke-width="3.6923" d="M40.206 3.487l-24.82 24.82-11.282-11.282"></path>
</symbol>
<symbol id="icon-edit" viewBox="0 0 32 32">
<path stroke-linejoin="round" stroke-linecap="round" stroke-miterlimit="4" stroke-width="2.6667" d="M22.667 4c0.35-0.35 0.766-0.628 1.223-0.817s0.948-0.287 1.443-0.287c0.495 0 0.986 0.098 1.443 0.287s0.873 0.467 1.223 0.817c0.35 0.35 0.628 0.766 0.817 1.224s0.287 0.948 0.287 1.443c0 0.495-0.098 0.986-0.287 1.443s-0.467 0.873-0.817 1.223l-18 18-7.333 2 2-7.333 18-18z"></path>
</symbol>
<symbol id="icon-eye-off" viewBox="0 0 32 32">
<path d="M27 28c-0 0-0.001 0-0.002 0-0.276 0-0.525-0.112-0.705-0.293l-22-22c-0.17-0.179-0.275-0.422-0.275-0.689 0-0.552 0.448-1 1-1 0.267 0 0.51 0.105 0.689 0.275l22 22c0.181 0.181 0.293 0.431 0.293 0.707 0 0.552-0.447 1-1 1h-0z"></path>
<path d="M15.979 24c-2.593 0-5.094-0.767-7.432-2.281-2.129-1.375-4.046-3.344-5.544-5.688v-0.005c1.246-1.786 2.611-3.296 4.077-4.513 0.027-0.023 0.045-0.057 0.045-0.096 0-0.034-0.014-0.065-0.036-0.088v0l-1.245-1.243c-0.023-0.023-0.054-0.037-0.089-0.037-0.031 0-0.059 0.011-0.081 0.030l0-0c-1.558 1.313-3.003 2.922-4.317 4.808-0.224 0.318-0.358 0.714-0.358 1.14 0 0.402 0.119 0.775 0.323 1.088l-0.005-0.008c1.651 2.583 3.775 4.759 6.143 6.291 2.666 1.727 5.534 2.602 8.519 2.602 1.697-0.005 3.325-0.293 4.842-0.818l-0.105 0.032c0.050-0.017 0.085-0.064 0.085-0.118 0-0.035-0.014-0.066-0.037-0.088v0l-1.349-1.349c-0.045-0.044-0.107-0.071-0.175-0.071-0.023 0-0.045 0.003-0.067 0.009l0.002-0c-0.958 0.257-2.058 0.404-3.192 0.404-0.002 0-0.004 0-0.006 0h0z"></path>
<path d="M30.677 14.912c-1.654-2.557-3.799-4.73-6.204-6.283-2.661-1.72-5.598-2.629-8.494-2.629-1.678 0.003-3.287 0.297-4.78 0.833l0.099-0.031c-0.049 0.018-0.084 0.064-0.084 0.118 0 0.035 0.014 0.066 0.037 0.089v0l1.347 1.347c0.045 0.044 0.107 0.072 0.175 0.072 0.024 0 0.047-0.003 0.069-0.010l-0.002 0c0.941-0.265 2.022-0.417 3.138-0.418h0c2.543 0 5.036 0.777 7.409 2.313 2.169 1.4 4.109 3.367 5.61 5.688 0.001 0.001 0.002 0.003 0.002 0.005s-0.001 0.004-0.002 0.005v-0c-1.123 1.752-2.451 3.251-3.976 4.52l-0.031 0.025c-0.028 0.023-0.046 0.058-0.046 0.096 0 0.034 0.014 0.065 0.036 0.088v0l1.244 1.243c0.023 0.023 0.054 0.037 0.089 0.037 0.030 0 0.058-0.011 0.080-0.029l-0 0c1.66-1.404 3.080-3.020 4.239-4.82l0.051-0.085c0.198-0.306 0.316-0.68 0.316-1.082 0-0.406-0.12-0.783-0.327-1.099l0.005 0.008z"></path>
<path d="M16 10c-0.001 0-0.002 0-0.003 0-0.472 0-0.932 0.055-1.373 0.158l0.041-0.008c-0.057 0.012-0.1 0.062-0.1 0.122 0 0.035 0.014 0.066 0.037 0.089v0l7.037 7.035c0.023 0.023 0.054 0.037 0.089 0.037 0.060 0 0.11-0.042 0.122-0.099l0-0.001c0.095-0.401 0.15-0.861 0.15-1.334 0-3.314-2.686-6-6-6-0 0-0 0-0 0v0z"></path>
<path d="M10.361 14.604c-0.023-0.023-0.054-0.037-0.089-0.037-0.060 0-0.11 0.042-0.122 0.099l-0 0.001c-0.096 0.402-0.151 0.864-0.151 1.339 0 3.314 2.686 6 6 6 0.475 0 0.937-0.055 1.379-0.159l-0.041 0.008c0.057-0.012 0.1-0.062 0.1-0.122 0-0.035-0.014-0.066-0.037-0.089v0z"></path>
</symbol>
<symbol id="icon-eye-on" viewBox="0 0 32 32">
<path d="M20.667 16c0 2.577-2.089 4.667-4.667 4.667s-4.667-2.089-4.667-4.667v0c0-2.577 2.089-4.667 4.667-4.667s4.667 2.089 4.667 4.667v0z"></path>
<path d="M16 4.667c-4.576 0-8.167 2.045-10.739 4.32-2.568 2.273-4.176 4.816-4.821 5.949-0.179 0.306-0.285 0.673-0.285 1.065s0.106 0.76 0.29 1.075l-0.005-0.010c0.645 1.133 2.253 3.677 4.821 5.947 2.573 2.275 6.163 4.32 10.739 4.32s8.167-2.045 10.739-4.32c2.568-2.272 4.176-4.815 4.821-5.948 0.179-0.306 0.285-0.673 0.285-1.065s-0.106-0.76-0.291-1.075l0.005 0.010c-0.645-1.133-2.253-3.676-4.821-5.947-2.573-2.276-6.163-4.321-10.739-4.321zM2.177 15.927c0.588-1.032 2.068-3.371 4.409-5.44 2.333-2.068 5.473-3.82 9.413-3.82s7.079 1.753 9.413 3.819c2.341 2.071 3.821 4.409 4.409 5.44 0.014 0.021 0.022 0.047 0.023 0.074v0c-0.001 0.028-0.009 0.053-0.023 0.075l0-0.001c-0.588 1.032-2.068 3.369-4.409 5.44-2.333 2.065-5.473 3.819-9.413 3.819s-7.079-1.753-9.413-3.819c-2.341-2.071-3.821-4.408-4.409-5.44-0.014-0.021-0.022-0.047-0.023-0.074v-0c0.001-0.027 0.009-0.053 0.023-0.074l-0 0.001z"></path>
</symbol>
<symbol id="icon-female" viewBox="0 0 32 32">
<path d="M14.773 3.121c-2.275 0.385-4.178 1.726-5.312 3.586l-0.019 0.034c-0.709 1.16-1.068 2.476-1.068 3.925 0 2.056 0.724 3.848 2.153 5.325 1.035 1.069 2.524 1.895 3.872 2.144 0.191 0.036 0.407 0.081 0.48 0.103l0.133 0.037v4.737l-1.68 0.027c-1.136 0.019-1.715 0.047-1.787 0.089-0.181 0.128-0.33 0.288-0.443 0.473l-0.004 0.007c-0.077 0.151-0.077 0.631 0 0.781s0.311 0.401 0.447 0.48c0.072 0.043 0.651 0.071 1.787 0.089l1.68 0.027 0.027 1.68c0.019 1.136 0.047 1.715 0.089 1.787 0.079 0.136 0.329 0.369 0.48 0.447s0.631 0.077 0.781 0c0.151-0.077 0.401-0.311 0.48-0.447 0.043-0.072 0.071-0.651 0.089-1.787l0.027-1.68 1.68-0.027c1.136-0.019 1.715-0.047 1.787-0.089 0.136-0.079 0.369-0.329 0.447-0.48s0.077-0.631 0-0.781c-0.116-0.192-0.266-0.352-0.442-0.477l-0.005-0.003c-0.072-0.043-0.651-0.071-1.787-0.089l-1.68-0.027v-4.737l0.133-0.037c0.073-0.021 0.289-0.067 0.48-0.103 1.356-0.251 2.872-1.096 3.896-2.169 1.42-1.491 2.129-3.255 2.129-5.3s-0.709-3.809-2.129-5.3c-1.143-1.197-2.631-1.973-4.321-2.251-0.556-0.091-1.853-0.088-2.401 0.005zM16.984 5.076c2.475 0.415 4.451 2.563 4.663 5.068 0.265 3.14-2.032 5.908-5.124 6.169-0.158 0.016-0.341 0.024-0.526 0.024-3.13 0-5.668-2.538-5.668-5.668 0-0.185 0.009-0.368 0.026-0.549l-0.002 0.023c0.276-3.271 3.349-5.62 6.631-5.068z"></path>
</symbol>
<symbol id="icon-male" viewBox="0 0 32 32">
<path d="M31.978 0.708c0.005-0.203-0.043-0.384-0.175-0.514-0.125-0.126-0.298-0.204-0.49-0.204-0.008 0-0.016 0-0.024 0l0.001-0-0.366 0.009c-0.007 0-0.012 0.003-0.020 0.004l-9.172-0.032c-0.404 0.009-0.738 0.344-0.747 0.748l-0.001 0.513c0.061 0.476 0.436 0.755 0.84 0.746l6.725 0.014-8.005 7.956c-2.172-1.82-4.969-2.918-8.024-2.918-6.904 0-12.5 5.596-12.5 12.5s5.596 12.5 12.5 12.5c6.903 0 12.5-5.597 12.5-12.5 0-3.129-1.152-5.987-3.052-8.179l8.028-7.978-0.029 6.848c-0.009 0.404 0.311 0.755 0.716 0.746l0.513-0.001c0.405-0.009 0.739-0.25 0.747-0.654l0.021-9.219c0-0.008-0.027-0.012-0.027-0.020zM23.038 19.529c0 5.808-4.709 10.517-10.517 10.517s-10.517-4.709-10.517-10.517 4.708-10.517 10.517-10.517c5.808-0.001 10.517 4.708 10.517 10.517z"></path>
</symbol>
<symbol id="icon-footprint" viewBox="0 0 32 32">
<path d="M12.5 5c-1.070 0-2.002 0.608-2.594 1.438s-0.906 1.902-0.906 3.062c0 1.16 0.314 2.233 0.906 3.063s1.524 1.437 2.594 1.437 2.002-0.608 2.594-1.438c0.592-0.83 0.906-1.902 0.906-3.062s-0.314-2.233-0.906-3.063c-0.592-0.83-1.524-1.437-2.594-1.437zM16 9.5c0 1.16 0.314 2.233 0.906 3.063s1.525 1.437 2.594 1.437c1.070 0 2.002-0.608 2.594-1.438s0.906-1.902 0.906-3.062-0.314-2.233-0.906-3.063c-0.592-0.83-1.524-1.437-2.594-1.437s-2.002 0.608-2.594 1.438c-0.592 0.83-0.906 1.902-0.906 3.062zM12.5 7c0.312 0 0.656 0.156 0.97 0.594 0.31 0.437 0.53 1.133 0.53 1.906s-0.22 1.47-0.53 1.906c-0.314 0.438-0.658 0.594-0.97 0.594s-0.656-0.156-0.97-0.594c-0.31-0.437-0.53-1.133-0.53-1.906s0.22-1.47 0.53-1.906c0.314-0.438 0.658-0.594 0.97-0.594zM19.5 7c0.312 0 0.656 0.156 0.97 0.594 0.31 0.437 0.53 1.133 0.53 1.906s-0.22 1.47-0.53 1.906c-0.314 0.438-0.658 0.594-0.97 0.594s-0.656-0.156-0.97-0.594c-0.31-0.437-0.53-1.133-0.53-1.906s0.22-1.47 0.53-1.906c0.314-0.438 0.658-0.594 0.97-0.594zM7.5 12c-1.070 0-2.002 0.608-2.594 1.438s-0.906 1.902-0.906 3.062 0.314 2.233 0.906 3.063c0.592 0.83 1.524 1.437 2.594 1.437s2.002-0.608 2.594-1.438c0.592-0.83 0.906-1.902 0.906-3.062s-0.314-2.233-0.906-3.063c-0.592-0.83-1.524-1.437-2.594-1.437zM24.5 12c-1.070 0-2.002 0.608-2.594 1.438s-0.906 1.902-0.906 3.062 0.314 2.233 0.906 3.063c0.592 0.83 1.524 1.437 2.594 1.437s2.002-0.608 2.594-1.438c0.592-0.83 0.906-1.902 0.906-3.062s-0.314-2.233-0.906-3.063c-0.592-0.83-1.524-1.437-2.594-1.437zM7.5 14c0.312 0 0.656 0.156 0.97 0.594 0.31 0.437 0.53 1.133 0.53 1.906s-0.22 1.47-0.53 1.906c-0.314 0.438-0.658 0.594-0.97 0.594s-0.656-0.156-0.97-0.594c-0.31-0.436-0.53-1.133-0.53-1.906s0.22-1.47 0.53-1.906c0.314-0.438 0.658-0.594 0.97-0.594zM24.5 14c0.312 0 0.656 0.156 0.97 0.594 0.31 0.437 0.53 1.133 0.53 1.906s-0.22 1.47-0.53 1.906c-0.314 0.438-0.658 0.594-0.97 0.594s-0.656-0.156-0.97-0.594c-0.31-0.437-0.53-1.133-0.53-1.906s0.22-1.47 0.53-1.906c0.314-0.438 0.658-0.594 0.97-0.594zM16 16c-1.333 0-2.263 0.865-2.72 1.625-0.454 0.76-0.734 1.392-1 1.656-0.153 0.157-1.118 0.52-2.124 1.033-0.503 0.257-1.010 0.6-1.437 1.125-0.43 0.525-0.72 1.25-0.72 2.063 0 1.92 1.58 3.5 3.5 3.5 0.866 0 1.77-0.28 2.655-0.53 0.889-0.256 1.846-0.472 1.846-0.472s0.957 0.216 1.844 0.47c0.886 0.25 1.79 0.53 2.656 0.53 1.92 0 3.5-1.58 3.5-3.5 0-0.794-0.293-1.52-0.72-2.030-0.425-0.513-0.937-0.83-1.436-1.095-1-0.53-1.983-0.95-2.125-1.094-0.24-0.237-0.51-0.89-0.97-1.654-0.459-0.767-1.409-1.627-2.749-1.627zM16 18c0.66 0 0.733 0.16 1.030 0.656 0.3 0.495 0.524 1.336 1.25 2.063 0.825 0.82 1.867 1 2.626 1.404 0.38 0.202 0.67 0.417 0.844 0.625 0.173 0.207 0.25 0.396 0.25 0.75 0 0.84-0.66 1.5-1.5 1.5-0.29 0-1.224-0.22-2.094-0.47-0.87-0.247-1.59-0.53-2.406-0.53s-1.536 0.283-2.406 0.53c-0.87 0.25-1.804 0.47-2.094 0.47-0.84 0-1.5-0.66-1.5-1.5 0-0.403 0.084-0.61 0.25-0.814 0.166-0.203 0.472-0.404 0.844-0.593 0.744-0.38 1.78-0.53 2.625-1.375 0.733-0.737 0.953-1.605 1.25-2.095 0.292-0.49 0.362-0.625 1.030-0.625l0.001 0.004z"></path>
</symbol>
<symbol id="icon-multiple" viewBox="0 0 32 32">
<path d="M11.694 10.327c-0.957-0.374-2.010-0.421-2.997-0.135s-1.851 0.89-2.459 1.718c-0.608 0.828-0.926 1.833-0.905 2.86s0.382 2.018 1.024 2.82 1.532 1.369 2.529 1.613c0.998 0.245 2.048 0.153 2.988-0.261s1.718-1.126 2.212-2.026c0.494-0.901 0.677-1.939 0.52-2.954-0.013-0.087-0.009-0.175 0.011-0.26s0.058-0.165 0.11-0.236c0.052-0.071 0.117-0.13 0.192-0.176s0.158-0.076 0.244-0.089 0.175-0.009 0.26 0.011c0.085 0.021 0.165 0.058 0.236 0.11s0.13 0.117 0.176 0.192c0.045 0.075 0.076 0.158 0.089 0.244 0.201 1.305-0.034 2.64-0.67 3.798s-1.635 2.073-2.844 2.605c-1.209 0.531-2.559 0.649-3.842 0.335s-2.426-1.044-3.252-2.074c-0.826-1.031-1.289-2.305-1.316-3.625s0.381-2.613 1.163-3.677 1.893-1.841 3.162-2.209c1.268-0.368 2.623-0.307 3.853 0.173 0.083 0.031 0.158 0.078 0.223 0.139s0.116 0.133 0.152 0.214c0.036 0.081 0.056 0.168 0.058 0.256s-0.013 0.176-0.045 0.258c-0.032 0.082-0.080 0.157-0.142 0.221s-0.135 0.114-0.216 0.149c-0.081 0.035-0.168 0.053-0.257 0.054s-0.176-0.015-0.258-0.048z"></path>
<path d="M9.331 26v-5.331c0-0.177 0.070-0.346 0.195-0.471s0.294-0.195 0.471-0.195c0.177 0 0.346 0.070 0.471 0.195s0.195 0.295 0.195 0.471v5.331c0 0.177-0.070 0.346-0.195 0.471s-0.294 0.195-0.471 0.195c-0.177 0-0.346-0.070-0.471-0.195s-0.195-0.294-0.195-0.471z"></path>
<path d="M7.332 22.668c0-0.177 0.070-0.346 0.195-0.471s0.294-0.195 0.471-0.195h3.998c0.177 0 0.346 0.070 0.471 0.195s0.195 0.295 0.195 0.471c0 0.177-0.070 0.346-0.195 0.471s-0.294 0.195-0.471 0.195h-3.998c-0.177 0-0.346-0.070-0.471-0.195s-0.195-0.294-0.195-0.471zM19.262 10.182c-0.739-0.208-1.517-0.232-2.267-0.067s-1.447 0.511-2.030 1.010-1.035 1.133-1.315 1.848c-0.28 0.715-0.379 1.487-0.288 2.249 0.011 0.087 0.004 0.175-0.019 0.26s-0.063 0.164-0.118 0.233c-0.054 0.069-0.121 0.127-0.198 0.17s-0.161 0.071-0.248 0.081c-0.087 0.010-0.176 0.003-0.26-0.020s-0.163-0.064-0.232-0.119-0.126-0.122-0.169-0.199c-0.043-0.077-0.070-0.161-0.080-0.249-0.156-1.311 0.126-2.638 0.801-3.773s1.706-2.016 2.933-2.505c1.227-0.489 2.58-0.56 3.851-0.201s2.388 1.127 3.178 2.185c0.79 1.059 1.208 2.348 1.19 3.669s-0.471 2.598-1.29 3.635-1.956 1.774-3.236 2.098c-1.28 0.324-2.632 0.216-3.845-0.307-0.080-0.035-0.153-0.085-0.214-0.147s-0.109-0.137-0.141-0.218c-0.065-0.164-0.063-0.348 0.007-0.51s0.201-0.29 0.366-0.356c0.164-0.065 0.348-0.063 0.51 0.007 0.586 0.253 1.218 0.382 1.857 0.381s1.27-0.134 1.855-0.389c0.585-0.255 1.112-0.628 1.547-1.095s0.77-1.018 0.983-1.62c0.214-0.602 0.301-1.241 0.258-1.878s-0.217-1.258-0.51-1.825-0.7-1.068-1.194-1.472c-0.495-0.404-1.067-0.701-1.681-0.875z"></path>
<path d="M21.855 11.477c-0.125-0.125-0.195-0.294-0.195-0.471s0.070-0.346 0.195-0.471l4.998-4.998c0.061-0.064 0.135-0.114 0.216-0.149s0.169-0.053 0.257-0.054c0.089-0.001 0.176 0.016 0.258 0.050s0.156 0.083 0.219 0.146c0.063 0.063 0.112 0.137 0.145 0.219s0.050 0.17 0.050 0.258c-0.001 0.088-0.019 0.176-0.054 0.257s-0.086 0.155-0.149 0.216l-4.998 4.998c-0.125 0.125-0.294 0.195-0.471 0.195s-0.346-0.070-0.471-0.195z"></path>
<path d="M27.273 10.007c-0.088-0.001-0.174-0.020-0.254-0.054s-0.153-0.085-0.214-0.147c-0.061-0.063-0.109-0.137-0.142-0.218s-0.049-0.168-0.047-0.256l0.033-2.648-2.648 0.033c-0.177 0.002-0.347-0.066-0.474-0.189s-0.199-0.292-0.201-0.469c-0.002-0.177 0.066-0.347 0.189-0.474s0.292-0.199 0.469-0.201l4.016-0.051-0.051 4.016c-0.001 0.088-0.020 0.174-0.054 0.254s-0.085 0.153-0.147 0.214c-0.063 0.061-0.137 0.109-0.218 0.142s-0.168 0.049-0.256 0.047z"></path>
</symbol>
<symbol id="icon-heart" viewBox="0 0 32 32">
<path d="M29.415 4.545c-1.676-1.676-3.894-2.591-6.262-2.591s-4.593 0.923-6.268 2.598l-0.875 0.875-0.889-0.889c-1.676-1.676-3.908-2.605-6.275-2.605-2.361 0-4.586 0.923-6.255 2.591-1.676 1.676-2.598 3.901-2.591 6.268 0 2.368 0.929 4.586 2.605 6.262l12.74 12.74c0.176 0.176 0.414 0.271 0.644 0.271s0.468-0.088 0.644-0.265l12.767-12.72c1.676-1.676 2.598-3.901 2.598-6.268 0.007-2.368-0.909-4.593-2.585-6.268zM28.113 15.786l-12.123 12.075-12.096-12.096c-1.33-1.33-2.062-3.094-2.062-4.973s0.726-3.643 2.056-4.966c1.323-1.323 3.087-2.056 4.959-2.056 1.879 0 3.65 0.733 4.979 2.062l1.533 1.533c0.36 0.36 0.936 0.36 1.296 0l1.52-1.52c1.33-1.33 3.1-2.062 4.973-2.062s3.636 0.733 4.966 2.056c1.33 1.33 2.056 3.094 2.056 4.973 0.007 1.879-0.726 3.643-2.056 4.973z"></path>
</symbol>
<symbol id="icon-heart-active" viewBox="0 0 32 32">
<path d="M27.787 6.147c-0.681-0.681-1.49-1.222-2.38-1.59s-1.844-0.559-2.807-0.559c-0.963 0-1.917 0.19-2.807 0.559s-1.698 0.909-2.379 1.591l-1.414 1.413-1.413-1.413c-1.375-1.376-3.241-2.148-5.187-2.148s-3.811 0.773-5.187 2.148c-1.375 1.376-2.148 3.241-2.148 5.187s0.773 3.811 2.148 5.187l11.786 11.787 11.787-11.787c0.681-0.681 1.222-1.49 1.59-2.38s0.559-1.844 0.559-2.807c0-0.963-0.19-1.917-0.559-2.807s-0.909-1.699-1.59-2.38z"></path>
<path stroke-linejoin="round" stroke-linecap="butt" stroke-miterlimit="4" stroke-width="1.7778" d="M25.407 4.556c-0.89-0.369-1.844-0.559-2.807-0.559s-1.917 0.19-2.807 0.559c-0.89 0.369-1.698 0.909-2.379 1.59l-1.414 1.413-1.413-1.413c-1.375-1.376-3.241-2.148-5.187-2.148s-3.811 0.773-5.187 2.148c-1.375 1.376-2.148 3.241-2.148 5.187s0.773 3.811 2.148 5.187l11.786 11.787 11.787-11.787c0.681-0.681 1.222-1.49 1.59-2.38s0.559-1.844 0.559-2.807c0-0.963-0.19-1.917-0.559-2.807s-0.909-1.699-1.59-2.38c-0.681-0.681-1.49-1.222-2.38-1.591z"></path>
</symbol>
<symbol id="icon-search-conv" viewBox="0 0 32 32">
<path d="M13.157 2.322c-0.919 0.112-1.753 0.31-2.547 0.591l0.083-0.026c-4.506 1.544-7.797 5.49-8.368 10.27l-0.006 0.059c-0.052 0.43-0.081 0.928-0.081 1.432 0 1.416 0.233 2.778 0.662 4.049l-0.026-0.089c0.626 1.876 1.579 3.404 3.012 4.839 1.016 1.037 2.216 1.89 3.547 2.506l0.074 0.031c3.98 1.783 8.507 1.408 12.092-0.999l0.507-0.341 2.4 2.396c2.754 2.747 2.686 2.693 3.493 2.693 0.535 0 0.905-0.144 1.248-0.485 0.341-0.343 0.485-0.713 0.485-1.248 0-0.807 0.053-0.74-2.693-3.493l-2.396-2.4 0.341-0.507c2.407-3.586 2.782-8.112 0.999-12.092-0.647-1.406-1.5-2.605-2.535-3.619l-0.002-0.002c-1.604-1.631-3.661-2.812-5.968-3.337l-0.082-0.016c-0.84-0.183-1.804-0.288-2.793-0.288-0.51 0-1.013 0.028-1.508 0.082l0.061-0.005zM15.947 5.872c2.028 0.309 3.792 1.261 5.117 2.639l0.003 0.003c1.296 1.358 2.064 2.903 2.384 4.791 0.108 0.638 0.108 2.085 0 2.722-0.255 1.544-0.866 2.913-1.746 4.065l0.016-0.022c-0.506 0.605-1.047 1.145-1.631 1.635l-0.020 0.016c-1.13 0.863-2.499 1.474-3.989 1.722l-0.053 0.007c-0.59 0.1-2.023 0.11-2.613 0.020-3.911-0.586-6.964-3.639-7.544-7.501l-0.006-0.049c-0.040-0.376-0.063-0.812-0.063-1.253s0.023-0.877 0.067-1.307l-0.005 0.054c0.285-1.981 1.2-3.71 2.532-5.015l0.001-0.001c1.572-1.572 3.472-2.437 5.71-2.603 0.382-0.028 1.371 0.014 1.84 0.078z"></path>
</symbol>
<symbol id="icon-star" viewBox="0 0 32 32">
<path stroke-linejoin="miter" stroke-linecap="butt" stroke-miterlimit="4" stroke-width="2.4" d="M12.4 9.394l3.6-6.822 3.6 6.822c0.318 0.603 0.899 1.025 1.571 1.141l7.601 1.315-5.376 5.532c-0.475 0.489-0.697 1.171-0.6 1.846l1.098 7.635-6.922-3.404c-0.612-0.301-1.329-0.301-1.941 0l-6.922 3.404 1.098-7.635c0.097-0.675-0.125-1.357-0.6-1.846l-5.376-5.532 7.601-1.315c0.672-0.116 1.252-0.538 1.571-1.141zM29.035 11.579v0zM7.767 27.031c0 0 0 0 0 0h-0z"></path>
</symbol>
<symbol id="icon-upload-cloud" viewBox="0 0 32 32">
<path d="M25.747 14.049c-0.406 0-0.808 0.039-1.202 0.116-0.18-4.839-4.172-8.72-9.054-8.72-4.489 0-8.288 3.322-8.954 7.688-3.62 0.088-6.537 3.061-6.537 6.701 0 3.696 3.007 6.703 6.703 6.703h5.608c0.424 0 0.768-0.344 0.768-0.768s-0.344-0.768-0.768-0.768h-5.608c-2.849 0-5.167-2.318-5.167-5.167s2.318-5.167 5.167-5.167c0.14 0 0.288 0.007 0.452 0.021l0.778 0.067 0.054-0.779c0.272-3.923 3.569-6.996 7.504-6.996 4.149 0 7.525 3.376 7.525 7.525 0 0.191-0.009 0.395-0.028 0.623l-0.101 1.225 1.145-0.447c0.548-0.214 1.125-0.323 1.714-0.323 2.601 0 4.717 2.116 4.717 4.717s-2.116 4.717-4.717 4.717c-0.068 0-2.11-0.004-4.142-0.008-2.018-0.004-4.028-0.008-4.095-0.008-0.478 0-0.728-0.23-0.743-0.684v-8.287l0.833 0.99c0.273 0.325 0.757 0.366 1.082 0.093s0.366-0.757 0.093-1.082l-1.846-2.193c-0.233-0.276-0.567-0.435-0.917-0.435s-0.684 0.158-0.917 0.435l-1.846 2.193c-0.273 0.324-0.232 0.809 0.093 1.082 0.144 0.121 0.319 0.18 0.494 0.18 0.219 0 0.436-0.093 0.588-0.273l0.809-0.961v8.266c0 0.889 0.607 2.212 2.278 2.212 0.067 0 2.075 0.004 4.091 0.008 2.034 0.004 4.077 0.008 4.146 0.008 3.448 0 6.253-2.805 6.253-6.253s-2.805-6.253-6.253-6.253z"></path>
</symbol>
<symbol id="icon-user" viewBox="0 0 32 32">
<path stroke-linejoin="round" stroke-linecap="round" stroke-miterlimit="4" stroke-width="2.6667" d="M16 20c-4.227 0-7.986 2.041-10.379 5.208-0.515 0.682-0.773 1.022-0.764 1.483 0.006 0.356 0.23 0.805 0.51 1.025 0.362 0.284 0.865 0.284 1.869 0.284h17.527c1.005 0 1.507 0 1.869-0.284 0.28-0.22 0.503-0.669 0.51-1.025 0.008-0.461-0.249-0.801-0.764-1.483-2.393-3.167-6.152-5.208-10.379-5.208z"></path>
<path stroke-linejoin="round" stroke-linecap="round" stroke-miterlimit="4" stroke-width="2.6667" d="M16 16c3.314 0 6-2.686 6-6s-2.686-6-6-6c-3.314 0-6 2.686-6 6s2.686 6 6 6z"></path>
</symbol>
<symbol id="icon-trash" viewBox="0 0 32 32">
<path d="M29.089 3.015h-8.601v-1.518c0-0.826-0.671-1.497-1.495-1.497h-5.987c-0.824 0-1.495 0.672-1.495 1.497v1.518h-8.601c-0.416 0-0.753 0.337-0.753 0.753s0.337 0.753 0.753 0.753h1.396l0.952 24.775c0.058 1.516 1.293 2.704 2.81 2.704h15.863c1.518 0 2.752-1.188 2.81-2.704l0.952-24.775h1.396c0.416 0 0.753-0.337 0.753-0.753s-0.337-0.753-0.753-0.753zM13.018 1.506h5.964v1.509h-5.964v-1.509zM25.236 29.238c-0.027 0.704-0.6 1.256-1.305 1.256h-15.863c-0.705 0-1.278-0.552-1.305-1.256l-0.95-24.717h20.372l-0.95 24.717z"></path>
<path d="M11.414 11.348c-0.008-0.411-0.343-0.739-0.753-0.739-0.005 0-0.010 0-0.015 0-0.416 0.008-0.746 0.352-0.738 0.767l0.236 12.29c0.008 0.411 0.343 0.739 0.753 0.739 0.005 0 0.010 0 0.015-0 0.416-0.008 0.746-0.352 0.738-0.767l-0.236-12.29z"></path>
<path d="M16 10.61c-0.416 0-0.753 0.337-0.753 0.753v12.29c0 0.416 0.337 0.753 0.753 0.753s0.753-0.337 0.753-0.753v-12.29c0-0.416-0.337-0.753-0.753-0.753z"></path>
<path d="M21.353 10.61c-0.414-0.009-0.759 0.323-0.767 0.738l-0.236 12.29c-0.008 0.416 0.323 0.759 0.738 0.767 0.005 0 0.010 0 0.015 0 0.409 0 0.745-0.328 0.753-0.739l0.236-12.29c0.008-0.416-0.323-0.759-0.738-0.767z"></path>
</symbol>
<symbol id="icon-cross-small-converted" viewBox="0 0 32 32">
<path d="M6.211 5.295c-0.46 0.185-0.785 0.524-0.929 0.964-0.086 0.263-0.049 0.748 0.077 1.021 0.067 0.147 1.408 1.527 4.342 4.467l4.244 4.253-4.244 4.253c-2.849 2.857-4.278 4.324-4.346 4.467-0.141 0.298-0.14 0.935 0.004 1.225 0.134 0.271 0.426 0.563 0.697 0.697 0.289 0.144 0.927 0.145 1.225 0.004 0.143-0.068 1.61-1.497 4.467-4.346l4.253-4.244 4.253 4.244c2.857 2.849 4.324 4.278 4.467 4.346 0.298 0.141 0.935 0.14 1.225-0.004 0.271-0.134 0.563-0.426 0.697-0.697 0.144-0.289 0.145-0.927 0.004-1.225-0.068-0.143-1.497-1.61-4.346-4.467l-4.244-4.253 4.244-4.253c2.849-2.857 4.278-4.324 4.346-4.467 0.141-0.298 0.14-0.935-0.004-1.225-0.134-0.271-0.426-0.563-0.697-0.697-0.289-0.144-0.927-0.145-1.225-0.004-0.143 0.068-1.61 1.497-4.467 4.346l-4.253 4.244-4.253-4.244c-2.921-2.913-4.32-4.275-4.467-4.343-0.257-0.119-0.842-0.154-1.069-0.063z"></path>
</symbol>
<symbol id="icon-burger" viewBox="0 0 32 32">
<path d="M3.564 6.751c-0.481 0.148-0.897 0.727-0.897 1.249 0 0.536 0.416 1.103 0.919 1.252 0.242 0.071 1.7 0.081 12.414 0.081s12.172-0.010 12.414-0.081c0.503-0.149 0.919-0.716 0.919-1.252s-0.416-1.103-0.919-1.252c-0.242-0.071-1.696-0.081-12.437-0.077-10.43 0.004-12.199 0.015-12.413 0.081zM3.564 14.751c-0.481 0.148-0.897 0.727-0.897 1.249 0 0.536 0.416 1.103 0.919 1.252 0.242 0.071 1.7 0.081 12.414 0.081s12.172-0.010 12.414-0.081c0.503-0.149 0.919-0.716 0.919-1.252s-0.416-1.103-0.919-1.252c-0.242-0.071-1.696-0.081-12.437-0.077-10.43 0.004-12.199 0.015-12.413 0.081zM3.564 22.751c-0.481 0.148-0.897 0.727-0.897 1.249 0 0.536 0.416 1.103 0.919 1.252 0.242 0.071 1.7 0.081 12.414 0.081s12.172-0.010 12.414-0.081c0.503-0.149 0.919-0.716 0.919-1.252s-0.416-1.103-0.919-1.252c-0.242-0.071-1.696-0.081-12.437-0.077-10.43 0.004-12.199 0.015-12.413 0.081z"></path>
</symbol>
</defs>
</svg>
